<?xml version="1.0" encoding="UTF-8"?>
<svg version="1.1" xmlns="http://www.w3.org/2000/svg" width="338" height="304">
<path d="M0 0 C2.2197736 2.70459568 2.36200819 3.98647906 2.41748047 7.44506836 C2.45784424 8.99278931 2.45784424 8.99278931 2.49902344 10.57177734 C2.50949707 11.68109619 2.5199707 12.79041504 2.53076172 13.93334961 C2.58914834 16.29272974 2.64774748 18.65210463 2.70654297 21.01147461 C2.7292627 22.21481445 2.75198242 23.4181543 2.77539062 24.65795898 C3.57497961 69.28064462 3.57497961 69.28064462 21.84326172 109.24584961 C22.29701172 110.19459961 22.75076172 111.14334961 23.21826172 112.12084961 C24.54289625 114.66822371 25.68982022 116.36969182 27.53076172 118.49584961 C29.84326172 121.24584961 29.84326172 121.24584961 29.84326172 123.24584961 C30.83326172 123.57584961 31.82326172 123.90584961 32.84326172 124.24584961 C33.94349085 125.62113602 35.04313425 126.99689432 36.14013672 128.37475586 C42.371102 135.22024295 50.51628218 140.61945298 57.84326172 146.24584961 C55.646231 159.07175868 39.26561882 172.8806802 29.06982422 180.15209961 C5.92583151 195.17047745 -20.04872677 201.18153717 -47.48657227 196.21777344 C-61.43960967 193.18354897 -74.98915774 187.1603218 -86.15673828 178.24584961 C-86.99462891 177.60776367 -87.83251953 176.96967773 -88.69580078 176.31225586 C-109.83579413 159.93035769 -126.41519008 135.10734189 -130.15673828 108.24584961 C-132.89313748 83.02450982 -128.35872876 56.80972276 -112.27001953 36.46459961 C-109.65736626 33.30587671 -106.91052247 30.28151722 -104.15673828 27.24584961 C-103.51865234 26.41053711 -102.88056641 25.57522461 -102.22314453 24.71459961 C-83.20771847 1.99673709 -26.69943262 -21.71557883 0 0 Z " fill="#0053D6" transform="translate(165.15673828125,41.754150390625)"/>
<path d="M0 0 C2.55029595 1.18197432 4.07141391 2.07357797 6.0625 4.125 C14.2653201 12.5508575 24.37746737 17.41267147 35 22 C35.33 21.34 35.66 20.68 36 20 C36.495 20.99 36.495 20.99 37 22 C44.4970403 24.82114265 52.62146581 25.90314296 60.5 27.125 C62.61492166 27.45880089 64.72952253 27.79464261 66.84375 28.1328125 C68.22336914 28.34768311 68.22336914 28.34768311 69.63085938 28.56689453 C72 29 72 29 75 30 C78.60444567 115.9698638 78.60444567 115.9698638 47.5625 150.3125 C36.65314959 161.99618542 16.13644339 179.89553151 -0.78125 181.3515625 C-5.05726158 180.67402545 -8.71524369 178.42912408 -12.4609375 176.34765625 C-14.8153395 174.84372533 -14.8153395 174.84372533 -17 175 C-18.00298952 174.00299848 -19.0023068 173.00230149 -20 172 C-21.66643433 170.90475614 -23.35689192 169.8456813 -25.0625 168.8125 C-29.92794809 165.77320816 -34.38348732 162.44193796 -38.80859375 158.796875 C-40.21500192 157.64367044 -41.64993328 156.52394186 -43.1171875 155.44921875 C-46.22141128 153.05986808 -48.5579489 150.03357014 -51 147 C-51.68320313 146.16597656 -52.36640625 145.33195313 -53.0703125 144.47265625 C-74.77038666 116.91280597 -78.54729881 85.25785379 -77.96362305 51.18920898 C-77.92292659 48.14990658 -78.0287063 45.91388111 -79 43 C-78.91426773 40.93412885 -78.76166465 38.87053475 -78.5625 36.8125 C-78.46066406 35.72582031 -78.35882813 34.63914063 -78.25390625 33.51953125 C-78.17011719 32.68808594 -78.08632812 31.85664062 -78 31 C-74.30771961 29.38140781 -70.85264209 28.50351063 -66.87890625 27.8515625 C-65.70295898 27.65328857 -64.52701172 27.45501465 -63.31542969 27.25073242 C-62.07696289 27.04424072 -60.83849609 26.83774902 -59.5625 26.625 C-39.17215148 23.06640487 -19.8445536 18.04050327 -4.125 3.75 C-3.34382813 3.04359375 -2.56265625 2.3371875 -1.7578125 1.609375 C-1.17773438 1.07828125 -0.59765625 0.5471875 0 0 Z M24.80273438 66.01171875 C24.098302 66.71627197 24.098302 66.71627197 23.37963867 67.43505859 C21.94532424 68.86718768 20.50322093 70.29114252 19.06054688 71.71484375 C18.16271484 72.61074219 17.26488281 73.50664063 16.33984375 74.4296875 C15.50831787 75.25710449 14.67679199 76.08452148 13.82006836 76.93701172 C11.77947413 78.79144168 11.77947413 78.79144168 12 81 C11.34 81 10.68 81 10 81 C10 81.66 10 82.32 10 83 C9.34 83 8.68 83 8 83 C6.39729881 84.58438921 6.39729881 84.58438921 4.75 86.625 C2.45339927 89.34047759 0.12849225 91.91262264 -2.4375 94.375 C-5.23284557 96.62712763 -5.23284557 96.62712763 -5 99 C-5.99 99.33 -6.98 99.66 -8 100 C-8 100.66 -8 101.32 -8 102 C-8.99 102 -9.98 102 -11 102 C-11 101.34 -11 100.68 -11 100 C-12.38911761 98.5918868 -12.38911761 98.5918868 -14.1875 97.1875 C-17.30237295 94.6053518 -20.17375061 91.90062438 -23 89 C-25.60966048 86.32820474 -27.88855331 84.07429779 -31 82 C-31.66 83.32 -32.32 84.64 -33 86 C-33.66 86 -34.32 86 -35 86 C-36.35712166 87.55855981 -36.35712166 87.55855981 -37.625 89.5 C-38.07101563 90.1496875 -38.51703125 90.799375 -38.9765625 91.46875 C-39.31429687 91.9740625 -39.65203125 92.479375 -40 93 C-39.13048706 93.86951294 -39.13048706 93.86951294 -38.2434082 94.7565918 C-29.16227214 103.83772786 -20.08113607 112.91886393 -11 122 C-7.45879942 120.49089988 -5.18395635 118.42880686 -2.48046875 115.7109375 C-1.62259766 114.85113281 -0.76472656 113.99132812 0.11914062 113.10546875 C1.00794922 112.20441406 1.89675781 111.30335937 2.8125 110.375 C3.68970703 109.49714844 4.56691406 108.61929688 5.47070312 107.71484375 C9.96415048 103.1911488 14.30059172 98.59570603 18.45581055 93.76025391 C20.69079309 91.21255049 23.074934 88.86800562 25.5 86.5 C29.36166876 82.68076716 33.05150395 78.79922534 36.5625 74.65625 C38 73 38 73 39.75 71.53125 C41.22188391 70.07660754 41.22188391 70.07660754 40.90625 68.046875 C39.80723703 65.56462157 38.45586812 64.12570959 36.5 62.25 C35.8709375 61.63640625 35.241875 61.0228125 34.59375 60.390625 C30.82914452 57.10582218 27.55327063 63.27892789 24.80273438 66.01171875 Z " fill="#006CF8" transform="translate(257,12)"/>
<path d="M0 0 C1.14275391 -0.00386719 2.28550781 -0.00773438 3.46289062 -0.01171875 C11.28839975 -0.00287137 19.01987761 0.41665313 26.8125 1.125 C26.8125 1.785 26.8125 2.445 26.8125 3.125 C27.53953125 3.13917969 28.2665625 3.15335938 29.015625 3.16796875 C37.21210234 3.55677601 43.46669341 5.56644612 50.8125 9.125 C51.96105469 9.67800781 53.10960937 10.23101562 54.29296875 10.80078125 C61.57292226 14.3812164 68.72595919 18.1767844 75.8125 22.125 C75.8125 22.785 75.8125 23.445 75.8125 24.125 C71.36700993 24.86769697 66.91967863 25.59765397 62.47021484 26.31616211 C60.95858253 26.56206508 59.44749915 26.81136866 57.93701172 27.06420898 C55.75886189 27.42819117 53.5789951 27.77967596 51.3984375 28.12890625 C50.39494766 28.30070152 50.39494766 28.30070152 49.3711853 28.47596741 C42.39427676 29.56770417 37.18126033 27.97709558 30.625 25.6875 C21.48822818 22.68028412 12.3762656 21.71560447 2.8125 21.125 C1.24435547 21.01671875 1.24435547 21.01671875 -0.35546875 20.90625 C-28.76506085 19.94457128 -57.55616517 31.26273231 -78.5703125 50.09375 C-95.18377599 65.63427588 -105.75400659 85.16650185 -111.1875 107.125 C-111.435 108.094375 -111.6825 109.06375 -111.9375 110.0625 C-118.00618774 139.05734143 -110.0609131 169.66511141 -94.1875 194.125 C-91.67788434 197.61286293 -89.00521764 200.88402005 -86.1875 204.125 C-85.71054688 204.7334375 -85.23359375 205.341875 -84.7421875 205.96875 C-68.37492078 226.54474245 -38.71550308 239.63714552 -13.10546875 242.66015625 C15.98214445 245.74881639 46.84554006 240.64681241 70.625 222.6875 C72.03415691 221.51584145 73.42981393 220.32778268 74.8125 219.125 C75.60914063 218.45984375 76.40578125 217.7946875 77.2265625 217.109375 C85.68834533 209.82647832 92.73822118 201.48604613 98.8125 192.125 C99.8025 192.681875 100.7925 193.23875 101.8125 193.8125 C102.45445312 194.17214844 103.09640625 194.53179687 103.7578125 194.90234375 C105.8125 196.125 105.8125 196.125 107.7421875 197.50390625 C111.74650528 200.32622661 115.07563367 202.08556781 120.05078125 201.81640625 C127.89366812 199.85291123 135.54490907 195.417974 142.17578125 190.859375 C144.8125 189.125 144.8125 189.125 146.8125 189.125 C138.14535139 216.15796693 122.78519463 241.72905752 96.75488281 255.18896484 C94.62708288 256.20194645 92.48472261 257.1488698 90.3125 258.0625 C89.3541626 258.46807129 89.3541626 258.46807129 88.37646484 258.88183594 C74.74807705 264.21159949 61.40074451 264.53776901 46.97659874 264.47455978 C43.507309 264.46066961 40.03858146 264.46734625 36.56929016 264.47940063 C26.71631941 264.51016268 16.86348691 264.50544297 7.01049805 264.48535156 C0.95768582 264.47441819 -5.09469859 264.48764829 -11.1474514 264.51524734 C-13.44265669 264.52067118 -15.73790523 264.51666701 -18.03307533 264.50284958 C-21.24168157 264.48373948 -24.44888755 264.49523555 -27.6574707 264.51318359 C-28.59429687 264.49984482 -29.53112305 264.48650604 -30.49633789 264.47276306 C-37.22790176 264.55615754 -41.61871042 266.42115912 -47.1875 270.125 C-48.28191406 270.82238281 -49.37632813 271.51976562 -50.50390625 272.23828125 C-51.57511719 272.96402344 -52.64632812 273.68976563 -53.75 274.4375 C-54.6618103 275.04851562 -54.6618103 275.04851562 -55.59204102 275.671875 C-59.81839857 278.50622 -64.01625912 281.38074392 -68.2109375 284.26171875 C-70.34887332 285.7162708 -72.48689427 287.17069773 -74.625 288.625 C-75.64343994 289.33180908 -76.66187988 290.03861816 -77.71118164 290.7668457 C-84.34815119 295.26472133 -89.72914689 298.85587756 -98 297.5 C-101.34784663 296.05583087 -102.54172047 295.32512687 -104.1875 292.125 C-105.99425605 286.98521865 -104.26975508 282.42134309 -102.9140625 277.36328125 C-102.54926285 275.9445295 -102.54926285 275.9445295 -102.17709351 274.49711609 C-101.39895771 271.47453018 -100.60698639 268.45582601 -99.8125 265.4375 C-99.02627901 262.43677264 -98.24337919 259.43533362 -97.46932983 256.43144226 C-96.98810535 254.56511811 -96.49995017 252.70056176 -96.00357056 250.83821106 C-92.6612749 237.91138154 -92.6612749 237.91138154 -95.1875 225.125 C-96.96342669 222.56291468 -99.02993084 220.36852686 -101.1875 218.125 C-124.93801647 192.00897288 -135.60497902 157.73593909 -134.33984375 122.77392578 C-132.85694551 96.9895574 -123.31078061 72.25573368 -107.1875 52.125 C-106.72472656 51.53879883 -106.26195313 50.95259766 -105.78515625 50.34863281 C-83.58115354 22.47328253 -51.03914626 4.52097748 -15.55981445 0.3125 C-10.38244101 -0.09670272 -5.19009207 -0.01727152 0 0 Z " fill="#0087FC" transform="translate(136.1875,4.875)"/>
<path d="M0 0 C43.21479166 -0.41277905 43.21479166 -0.41277905 62 2 C62.88837287 11.45761554 63.12493919 20.81693945 63.0625 30.3125 C63.05746607 31.65038892 63.05290657 32.9882797 63.04882812 34.32617188 C63.03718676 37.55083085 63.02083703 40.7753896 63 44 C58.8450106 45.56059093 55.42623203 46.24640276 50.99462891 46.22705078 C49.83387848 46.22689972 48.67312805 46.22674866 47.47720337 46.22659302 C46.23949188 46.21627045 45.0017804 46.20594788 43.7265625 46.1953125 C41.80824112 46.19106766 41.80824112 46.19106766 39.85116577 46.18673706 C36.46779901 46.1774602 33.08470674 46.15952183 29.70141602 46.1373291 C26.24237426 46.11679041 22.78330404 46.10771826 19.32421875 46.09765625 C12.54940386 46.075632 5.77471776 46.04218118 -1 46 C-1.02485795 40.73470396 -1.04293442 35.46944265 -1.05493164 30.20410156 C-1.05993714 28.41568404 -1.06674355 26.62727057 -1.07543945 24.83886719 C-1.08767166 22.25715126 -1.09326628 19.67548979 -1.09765625 17.09375 C-1.10281754 16.30383667 -1.10797882 15.51392334 -1.11329651 14.70007324 C-1.11379207 9.71248442 -0.71069415 4.93797181 0 0 Z " fill="#CEECFC" transform="translate(105,99)"/>
<path d="M0 0 C-1.56121395 13.56709315 -3.50640108 26.78816651 -7 40 C-12.16068491 41.05476516 -17.09712007 41.12969365 -22.3359375 41.09765625 C-23.21528961 41.0962413 -24.09464172 41.09482635 -25.00064087 41.09336853 C-27.79212942 41.08779877 -30.58353594 41.0752519 -33.375 41.0625 C-35.27473842 41.05748109 -37.1744781 41.05291887 -39.07421875 41.04882812 C-43.71617714 41.03783925 -48.35807469 41.02059557 -53 41 C-55.69474613 34.96579822 -57.29941409 29.14985766 -58.6875 22.6875 C-59.02491211 21.21506836 -59.02491211 21.21506836 -59.36914062 19.71289062 C-59.58119141 18.73900391 -59.79324219 17.76511719 -60.01171875 16.76171875 C-60.20209717 15.89506592 -60.39247559 15.02841309 -60.58862305 14.13549805 C-61.16370306 9.75226211 -61.07726276 5.414021 -61 1 C-55.04506303 0.85497401 -49.09006843 0.71269374 -43.13500977 0.57275391 C-41.11708894 0.52497159 -39.09918449 0.47649103 -37.08129883 0.42724609 C-24.71815747 0.12608083 -12.36694572 -0.07475612 0 0 Z " fill="#76CBFC" transform="translate(167,157)"/>
<path d="M0 0 C8.75567443 5.29755091 12.72387887 15.80284635 15.31640625 25.24609375 C16.36938362 30.08389885 16.58673769 34.54067842 16.5625 39.5 C3.86628073 39.57493465 -8.80879357 39.34322348 -21.5 39 C-23.3496041 38.95162099 -25.19921347 38.90344288 -27.04882812 38.85546875 C-31.51178258 38.73928466 -35.97465787 38.62041827 -40.4375 38.5 C-40.2997717 37.07888365 -40.15620954 35.65833205 -40.01025391 34.23803711 C-39.93094635 33.44691025 -39.85163879 32.65578339 -39.76992798 31.84068298 C-38.20472759 20.81983592 -31.52748488 8.72466501 -23.1875 1.4375 C-16.87331846 -3.0111279 -7.03306942 -3.09400535 0 0 Z " fill="#F7FBFC" transform="translate(148.4375,48.5)"/>
<path d="M0 0 C-0.33 14.85 -0.66 29.7 -1 45 C-13.30769231 45 -13.30769231 45 -17.75 44.125 C-23.69342147 43.02177667 -29.6519347 42.26917278 -35.65234375 41.5625 C-38.71340256 41.0481564 -41.18694183 40.28108911 -44 39 C-44.37836658 28.99430601 -44.04654054 19.6511676 -41 10 C-40.84120361 9.29536621 -40.68240723 8.59073242 -40.51879883 7.86474609 C-39.68198608 5.26617638 -39.00080666 3.88073597 -37 2 C-32.1177065 0.67237262 -27.21741281 0.60165022 -22.1875 0.5 C-20.81951169 0.44362819 -19.45166251 0.3837657 -18.08398438 0.3203125 C-12.04914652 0.07145321 -6.04124963 0 0 0 Z " fill="#B4E2FC" transform="translate(92,99)"/>
<path d="M0 0 C8.90755259 0.45478702 17.71561844 1.39213885 26.5625 2.5 C27.60921875 2.63059814 28.6559375 2.76119629 29.734375 2.89575195 C34.19541185 3.46528439 38.59621711 4.07736863 43 5 C43.10546143 5.68400879 43.21092285 6.36801758 43.31958008 7.07275391 C46.17851867 25.62649251 46.17851867 25.62649251 50 44 C42.7400225 43.04623825 35.68872256 41.52354708 28.625 39.625 C27.86461426 39.42817627 27.10422852 39.23135254 26.32080078 39.02856445 C17.06891739 36.46673932 12.6322168 31.85894862 7.8984375 23.66015625 C3.9121858 16.27105532 1.19103826 8.31219333 0 0 Z " fill="#66C4FB" transform="translate(50,152)"/>
<path d="M0 0 C3.52070936 1.17356979 4.02449942 1.95443661 6 5 C6.45375 5.94875 6.9075 6.8975 7.375 7.875 C8.69963453 10.4223741 9.8465585 12.12384221 11.6875 14.25 C14 17 14 17 14 19 C14.99 19.33 15.98 19.66 17 20 C18.16701829 21.40042195 19.32978828 22.80482445 20.4609375 24.234375 C23.31015658 27.50302227 26.68403595 30.21886886 30 33 C29.15506325 36.6965983 27.93855595 38.05120337 25 40.5 C20.62507794 43.03200617 15.959608 44.38178998 11.125 45.75 C10.01125 46.06614258 10.01125 46.06614258 8.875 46.38867188 C3.28488396 47.87385079 -2.23759525 48.56891244 -8 49 C-7.88930176 48.42145264 -7.77860352 47.84290527 -7.66455078 47.24682617 C-6.77922472 42.61705914 -5.89705237 37.98672193 -5.01953125 33.35546875 C-4.46654875 30.43859929 -3.90516957 27.52475155 -3.32421875 24.61328125 C-2.16672887 18.70213066 -1.6041344 12.8612777 -1.24609375 6.84765625 C-1.03784455 4.4379155 -0.67470668 2.31407663 0 0 Z " fill="#71C9FB" transform="translate(181,146)"/>
<path d="M0 0 C0.33 0 0.66 0 1 0 C1.88827356 8.41272679 2.2587714 16.79648657 2.5 25.25 C2.76798364 34.32422365 3.12176404 43.31960389 4.109375 52.34765625 C4 55 4 55 1 59 C1 54.71 1 50.42 1 46 C-19.65563682 44.88668013 -40.32098905 44.48574858 -61 44 C-61.33 59.18 -61.66 74.36 -62 90 C-47.48 90 -32.96 90 -18 90 C-18 90.33 -18 90.66 -18 91 C-24.22929354 91.19332092 -30.45889214 91.37079361 -36.68896484 91.53710938 C-38.80951217 91.59560723 -40.92996162 91.65776984 -43.05029297 91.72363281 C-46.09324324 91.81752469 -49.13629898 91.89834935 -52.1796875 91.9765625 C-53.13181122 92.00875885 -54.08393494 92.0409552 -55.06491089 92.0741272 C-55.94567291 92.09429901 -56.82643494 92.11447083 -57.73388672 92.13525391 C-58.89970779 92.16856308 -58.89970779 92.16856308 -60.08908081 92.20254517 C-62 92 -62 92 -64 90 C-64.22705078 88.02880859 -64.22705078 88.02880859 -64.1953125 85.6484375 C-64.18886719 84.79765625 -64.18242188 83.946875 -64.17578125 83.0703125 C-64.15902344 82.18085938 -64.14226562 81.29140625 -64.125 80.375 C-64.11597656 79.4778125 -64.10695313 78.580625 -64.09765625 77.65625 C-64.0740497 75.43723414 -64.0411231 73.21874923 -64 71 C-64.66 71 -65.32 71 -66 71 C-66 64.73 -66 58.46 -66 52 C-65.34 52 -64.68 52 -64 52 C-64.061875 51.113125 -64.12375 50.22625 -64.1875 49.3125 C-63.97341573 45.53034455 -63.30761268 43.96998299 -61 41 C-58.56738281 40.30883789 -58.56738281 40.30883789 -55.703125 40.22265625 C-54.6615625 40.18462891 -53.62 40.14660156 -52.546875 40.10742188 C-50.91492188 40.08518555 -50.91492188 40.08518555 -49.25 40.0625 C-48.1775 40.02060547 -47.105 39.97871094 -46 39.93554688 C-40.14927574 39.77342705 -35.63332833 40.37609083 -30 42 C-25.93428178 42.22335496 -21.88217237 42.1435496 -17.8125 42.0625 C-15.67324539 42.02801649 -13.53391499 41.99788796 -11.39453125 41.97265625 C-10.45456299 41.95468994 -9.51459473 41.93672363 -8.54614258 41.91821289 C-6.19382419 41.99377399 -4.2458722 42.32699675 -2 43 C-2.495 39.535 -2.495 39.535 -3 36 C-9.69001228 35.13416321 -16.20012707 34.86609062 -22.94140625 34.90234375 C-24.45383156 34.90446617 -24.45383156 34.90446617 -25.99681091 34.90663147 C-29.18540542 34.91218395 -32.37392708 34.92472739 -35.5625 34.9375 C-37.73762919 34.94252115 -39.91275949 34.94708298 -42.08789062 34.95117188 C-47.39195151 34.96213777 -52.69597055 34.97882786 -58 35 C-58 34.34 -58 33.68 -58 33 C-58.66 33 -59.32 33 -60 33 C-60.59113771 24.13293432 -58.28765688 16.11098683 -53 9 C-53 8.34 -53 7.68 -53 7 C-52.01 7.33 -51.02 7.66 -50 8 C-50.40992187 8.97839844 -50.81984375 9.95679687 -51.2421875 10.96484375 C-51.78683747 12.28890661 -52.3310867 13.61313436 -52.875 14.9375 C-53.14441406 15.57751953 -53.41382812 16.21753906 -53.69140625 16.87695312 C-55.15598641 20.46696059 -56.28331572 23.96397417 -57.09423828 27.76000977 C-57.26625763 28.55778336 -57.43827698 29.35555695 -57.61550903 30.17750549 C-57.74239105 30.77892868 -57.86927307 31.38035187 -58 32 C-56.31596069 31.99214478 -56.31596069 31.99214478 -54.59790039 31.98413086 C-50.34660674 31.96573594 -46.09531643 31.9544449 -41.84399414 31.94506836 C-40.02009485 31.94010559 -38.1961994 31.9333332 -36.37231445 31.92456055 C-24.53926149 31.86915931 -12.80346828 32.14175946 -1 33 C-2.95786285 21.80746766 -4.91462162 11.25412362 -10 1 C-8.140625 1.21484375 -8.140625 1.21484375 -6 2 C-4.734375 4.06640625 -4.734375 4.06640625 -3.75 6.5625 C-3.41484375 7.38878906 -3.0796875 8.21507812 -2.734375 9.06640625 C-2.49203125 9.70449219 -2.2496875 10.34257813 -2 11 C-1.28715011 8.43262656 -1 6.52430463 -1 3.8125 C-1 1 -1 1 0 0 Z " fill="#025AF6" transform="translate(166,55)"/>
<path d="M0 0 C-0.37511719 0.49886719 -0.75023437 0.99773438 -1.13671875 1.51171875 C-7.96000945 11.08495029 -11.02620187 21.75891679 -14 33 C-18.20803702 33.33714509 -22.41647218 33.66904245 -26.625 34 C-27.81480469 34.09539062 -29.00460938 34.19078125 -30.23046875 34.2890625 C-31.38417969 34.37929687 -32.53789063 34.46953125 -33.7265625 34.5625 C-34.78439941 34.64628906 -35.84223633 34.73007813 -36.93212891 34.81640625 C-39.96307303 34.99779014 -42.96445471 35.03182747 -46 35 C-40.63875762 23.41448598 -14.69417689 -4.89805896 0 0 Z " fill="#F4FAFC" transform="translate(108,54)"/>
<path d="M0 0 C0.33 0 0.66 0 1 0 C1.57287376 7.78494522 2.06541625 15.50108117 1.9375 23.3125 C1.8727504 30.08243016 2.47757644 36.6735557 3.28881836 43.3918457 C3.71448179 46.96233034 3.99712654 50.32118844 3.96484375 53.9296875 C4.00588499 57.51395553 4.89888222 58.25941159 7 61 C6.835 61.721875 6.67 62.44375 6.5 63.1875 C5.72451067 67.5496275 7.45684354 70.93281436 9 75 C9.71024709 76.93679927 10.41855691 78.87430999 11.125 80.8125 C11.45757812 81.70582031 11.79015625 82.59914063 12.1328125 83.51953125 C12.8845619 85.66980544 13.49317438 87.78134499 14 90 C14.66 90 15.32 90 16 90 C16.20625 90.825 16.4125 91.65 16.625 92.5 C17.86456827 95.65526469 19.00038145 97.45641732 21.0625 100.0625 C23.38544606 103.00715912 24.75904429 105.14470865 25 109 C26.485 109.495 26.485 109.495 28 110 C28 110.66 28 111.32 28 112 C29.65 112 31.3 112 33 112 C33.061875 112.763125 33.12375 113.52625 33.1875 114.3125 C34.256507 117.84844623 35.87906619 118.23947323 39 120 C39 120.99 39 121.98 39 123 C39.50402344 123.23203125 40.00804687 123.4640625 40.52734375 123.703125 C43.9981422 125.52351218 47.25660336 127.6483638 50.5625 129.75 C64.81145174 139.98927552 64.81145174 139.98927552 81.11328125 143.73046875 C83.25854998 143.17218931 83.25854998 143.17218931 86 142 C83.70626422 144.96274205 82.10127285 145.96744801 78.5 147.125 C73.19354743 147.61559656 69.04425777 144.85117616 64.5390625 142.34765625 C62.1846605 140.84372533 62.1846605 140.84372533 60 141 C58.99701048 140.00299848 57.9976932 139.00230149 57 138 C55.33356567 136.90475614 53.64310808 135.8456813 51.9375 134.8125 C47.07205191 131.77320816 42.61651268 128.44193796 38.19140625 124.796875 C36.78499808 123.64367044 35.35006672 122.52394186 33.8828125 121.44921875 C30.77858872 119.05986808 28.4420511 116.03357014 26 113 C25.31679687 112.16597656 24.63359375 111.33195312 23.9296875 110.47265625 C0.91575445 81.2441594 -1.38932662 47.86130769 -1 12 C-1 11.01 -1 10.02 -1 9 C-0.84872598 7.43593472 -0.68097478 5.87340748 -0.5 4.3125 C-0.4071875 3.50425781 -0.314375 2.69601563 -0.21875 1.86328125 C-0.1465625 1.24839844 -0.074375 0.63351563 0 0 Z " fill="#0527E0" transform="translate(180,46)"/>
<path d="M0 0 C1.9375 0.3125 1.9375 0.3125 4 1 C4.33 1.99 4.66 2.98 5 4 C6.32 4 7.64 4 9 4 C9 4.70125 9 5.4025 9 6.125 C10.38105824 10.09554245 12.86392509 11.38915221 16.28515625 13.66796875 C16.85105469 14.10753906 17.41695312 14.54710937 18 15 C18 15.66 18 16.32 18 17 C18.5775 17.28875 19.155 17.5775 19.75 17.875 C21.83333333 18.91666667 23.91666667 19.95833333 26 21 C26 21.66 26 22.32 26 23 C26.99 23 27.98 23 29 23 C29 23.66 29 24.32 29 25 C30.299375 25.433125 30.299375 25.433125 31.625 25.875 C32.73875 26.24625 33.8525 26.6175 35 27 C36.03125 27.33 37.0625 27.66 38.125 28 C41 29 41 29 43.1875 30.125 C45.11483327 31.21737453 45.11483327 31.21737453 48 31 C48 31.66 48 32.32 48 33 C50.35368393 33.48164188 52.70790155 33.96036648 55.0625 34.4375 C55.71927734 34.57220703 56.37605469 34.70691406 57.05273438 34.84570312 C71.28836852 37.72088046 86.79067123 38.55981079 101 35 C101.99 35 102.98 35 104 35 C104.495 34.01 104.495 34.01 105 33 C108.0481143 31.47594285 111.0579988 30.77028692 114.375 30.125 C118.88766505 29.1908256 122.0884254 27.39484159 126 25 C126.66 25 127.32 25 128 25 C128.33 24.34 128.66 23.68 129 23 C130.64363134 22.27840576 132.31050386 21.60648579 134 21 C134 20.34 134 19.68 134 19 C134.99 18.505 134.99 18.505 136 18 C136.65213292 15.97536745 136.65213292 15.97536745 137 14 C137.99 14.33 138.98 14.66 140 15 C140.99 14.67 141.98 14.34 143 14 C138.54088464 24.41214754 123.30832966 30.48807992 113.30859375 34.546875 C89.08521448 43.58743367 62.10833637 42.44774552 38.5 32.1875 C31.80499174 29.11895455 25.77000404 25.60588042 20 21 C19.16210938 20.36191406 18.32421875 19.72382813 17.4609375 19.06640625 C2.61099117 7.55881944 2.61099117 7.55881944 0 0 Z " fill="#013FBD" transform="translate(59,199)"/>
<path d="M0 0 C11.55 0 23.1 0 35 0 C33.99039479 5.04802604 33.38217283 6.17219709 30.0625 9.75 C29.35222656 10.52859375 28.64195312 11.3071875 27.91015625 12.109375 C24.7052065 15.2815543 22.23936525 15.29623175 17.8125 15.5 C13.15297603 15.4588563 10.35358469 15.28182809 6.9375 12 C3.73500742 8.33030028 2.2746811 4.5493622 0 0 Z " fill="#48AFF4" transform="translate(119,210)"/>
<path d="M0 0 C2.32327917 3.03506813 1.93165184 5.36511106 1.59375 9.08203125 C1.26375 10.07203125 0.93375 11.06203125 0.59375 12.08203125 C-0.06625 12.08203125 -0.72625 12.08203125 -1.40625 12.08203125 C-1.3134375 10.19484375 -1.3134375 10.19484375 -1.21875 8.26953125 C-1.21339222 5.10542314 -1.21339222 5.10542314 -2.46875 2.26953125 C-11.60328538 -3.32905495 -22.82534635 -4.5284055 -33.40625 -3.91796875 C-34.06625 -3.58796875 -34.72625 -3.25796875 -35.40625 -2.91796875 C-37.54872238 -2.71256527 -39.69563602 -2.5520762 -41.84375 -2.41796875 C-45.30073578 -2.20166573 -48.11671711 -2.01447971 -51.40625 -0.91796875 C-53.48919013 -0.43573164 -55.57506953 0.02908166 -57.6640625 0.484375 C-59.62147908 0.92839367 -59.62147908 0.92839367 -60.40625 3.08203125 C-62.87587605 3.68931634 -65.34975793 4.03946303 -67.86328125 4.421875 C-70.73094668 5.16632271 -72.09947275 6.24954465 -74.40625 8.08203125 C-76.00881026 8.97413658 -77.61236096 9.86473273 -79.22827148 10.73242188 C-89.24543291 16.14725037 -102.64446141 24.79666549 -106.40625 36.08203125 C-108.03515625 37.46875 -108.03515625 37.46875 -109.96875 38.76953125 C-110.60941406 39.20652344 -111.25007813 39.64351562 -111.91015625 40.09375 C-112.65072266 40.58294922 -112.65072266 40.58294922 -113.40625 41.08203125 C-113.40625 37.19571775 -112.17433101 36.2243986 -109.71875 33.26953125 C-109.03425781 32.43808594 -108.34976563 31.60664062 -107.64453125 30.75 C-106.90589844 29.86957031 -106.16726562 28.98914063 -105.40625 28.08203125 C-104.6225 27.09460938 -103.83875 26.1071875 -103.03125 25.08984375 C-100.26046014 21.91498037 -97.406546 19.34914808 -94.09375 16.76953125 C-93.49054932 16.29950684 -92.88734863 15.82948242 -92.26586914 15.34521484 C-71.04882028 -0.75572402 -24.64362682 -19.64289086 0 0 Z " fill="#0376FA" transform="translate(165.40625,41.91796875)"/>
<path d="M0 0 C4.09783055 0.98606671 8.32936312 0.96615023 12.52612305 1.11254883 C13.9028418 1.17055664 13.9028418 1.17055664 15.30737305 1.22973633 C17.54676833 1.32304446 19.78617559 1.40883067 22.02612305 1.48754883 C22.02612305 1.81754883 22.02612305 2.14754883 22.02612305 2.48754883 C5.19612305 2.48754883 -11.63387695 2.48754883 -28.97387695 2.48754883 C-29.30387695 17.66754883 -29.63387695 32.84754883 -29.97387695 48.48754883 C-15.45387695 48.48754883 -0.93387695 48.48754883 14.02612305 48.48754883 C14.02612305 48.81754883 14.02612305 49.14754883 14.02612305 49.48754883 C7.79682951 49.68086975 1.5672309 49.85834243 -4.6628418 50.0246582 C-6.78338912 50.08315606 -8.90383858 50.14531866 -11.02416992 50.21118164 C-14.0671202 50.30507351 -17.11017594 50.38589818 -20.15356445 50.46411133 C-21.10568817 50.49630768 -22.05781189 50.52850403 -23.03878784 50.56167603 C-24.35993088 50.59193375 -24.35993088 50.59193375 -25.70776367 50.62280273 C-26.48497772 50.64500885 -27.26219177 50.66721497 -28.06295776 50.69009399 C-29.97387695 50.48754883 -29.97387695 50.48754883 -31.97387695 48.48754883 C-32.20092773 46.51635742 -32.20092773 46.51635742 -32.16918945 44.13598633 C-32.16274414 43.28520508 -32.15629883 42.43442383 -32.1496582 41.55786133 C-32.13290039 40.6684082 -32.11614258 39.77895508 -32.09887695 38.86254883 C-32.08985352 37.96536133 -32.08083008 37.06817383 -32.0715332 36.14379883 C-32.04792665 33.92478297 -32.01500005 31.70629805 -31.97387695 29.48754883 C-32.63387695 29.48754883 -33.29387695 29.48754883 -33.97387695 29.48754883 C-33.97387695 23.21754883 -33.97387695 16.94754883 -33.97387695 10.48754883 C-33.31387695 10.48754883 -32.65387695 10.48754883 -31.97387695 10.48754883 C-32.03575195 9.60067383 -32.09762695 8.71379883 -32.16137695 7.80004883 C-31.93592305 3.81702992 -31.70531933 2.42384938 -28.97387695 -0.51245117 C-25.26412488 -1.36989575 -21.58207607 -1.39562567 -17.78637695 -1.44995117 C-16.76995117 -1.4918457 -15.75352539 -1.53374023 -14.70629883 -1.5769043 C-9.48878925 -1.72847817 -5.00030915 -1.46802211 0 0 Z " fill="#0358EF" transform="translate(133.973876953125,96.512451171875)"/>
<path d="M0 0 C1.02738281 0.25394531 2.05476563 0.50789062 3.11328125 0.76953125 C3.7791626 0.93396729 4.44504395 1.09840332 5.13110352 1.26782227 C6.59533614 1.63342976 8.05806751 2.00509875 9.51928711 2.38256836 C12.76714252 3.2191426 15.95488542 3.99244493 19.265625 4.546875 C23.7018388 5.36472447 26.16514344 6.02146342 29.15625 9.52734375 C30.92981975 12.29309495 32.4929485 15.0825592 34 18 C34.66 18.99 35.32 19.98 36 21 C31.18779506 20.33820364 27.15737658 18.43486802 22.8125 16.375 C22.0594458 16.01962158 21.3063916 15.66424316 20.53051758 15.2980957 C14.57867828 12.42031843 9.21987049 9.066763 4 5 C3.25363281 4.48050781 2.50726563 3.96101562 1.73828125 3.42578125 C1.16464844 2.95527344 0.59101562 2.48476562 0 2 C0 1.34 0 0.68 0 0 Z " fill="#4EB9F6" transform="translate(79,202)"/>
<path d="M0 0 C-7.54151898 8.77558572 -18.72102236 16.09446215 -30 19 C-30.66 18.67 -31.32 18.34 -32 18 C-30.762248 15.86698077 -29.51085175 13.74430401 -28.25 11.625 C-27.90195313 11.02171875 -27.55390625 10.4184375 -27.1953125 9.796875 C-24.60867472 5.48581203 -22.68089787 3.78836947 -17.92529297 2.38989258 C-15.5766312 1.85696541 -13.22771936 1.32727351 -10.875 0.8125 C-10.05128906 0.62236328 -9.22757813 0.43222656 -8.37890625 0.23632812 C-7.19748047 -0.02567383 -7.19748047 -0.02567383 -5.9921875 -0.29296875 C-4.91493408 -0.53309692 -4.91493408 -0.53309692 -3.81591797 -0.77807617 C-2 -1 -2 -1 0 0 Z " fill="#61D0F9" transform="translate(193,204)"/>
<path d="M0 0 C2.97 0.99 5.94 1.98 9 3 C9.33 2.34 9.66 1.68 10 1 C10.33 1.66 10.66 2.32 11 3 C18.4970403 5.82114265 26.62146581 6.90314296 34.5 8.125 C36.61492166 8.45880089 38.72952253 8.79464261 40.84375 9.1328125 C41.76349609 9.27605957 42.68324219 9.41930664 43.63085938 9.56689453 C46 10 46 10 49 11 C50.94152361 57.30740343 50.94152361 57.30740343 49 77 C48.01 76.505 48.01 76.505 47 76 C47.00523682 74.91283691 47.01047363 73.82567383 47.01586914 72.70556641 C47.03429826 68.57911031 47.04556689 64.45265764 47.05493164 60.32617188 C47.05988694 58.55761092 47.06665309 56.78905389 47.07543945 55.02050781 C47.1240187 44.97317716 47.04053725 34.98886901 46.2646637 24.96621704 C45.94530311 20.43058134 46.21622918 16.44705535 47 12 C45.700625 12.04125 44.40125 12.0825 43.0625 12.125 C38.14094454 12.13275048 33.74843009 11.18710752 29 10 C28.21109375 9.84402344 27.4221875 9.68804687 26.609375 9.52734375 C22.6827488 8.73378905 18.81841751 7.70877998 14.9375 6.71875 C13.07864227 6.26392311 11.20866574 5.85075713 9.328125 5.49609375 C6.22882092 4.83567157 3.74536583 3.55986695 1 2 C0.67 1.34 0.34 0.68 0 0 Z " fill="#0197FB" transform="translate(283,31)"/>
<path d="M0 0 C0.83999039 -0.00095673 1.67998077 -0.00191345 2.54542542 -0.00289917 C4.31959101 -0.00357693 6.09375915 -0.00175092 7.86791992 0.00244141 C10.52724074 0.00773454 13.18638793 0.00251423 15.84570312 -0.00390625 C25.17024318 -0.00716857 34.40879233 0.25619249 43.7097168 0.91455078 C47.92258216 1.18347628 52.09806147 1.21593259 56.31640625 1.1328125 C60.70676213 1.05158482 64.83669016 1.06600928 69.12890625 2.1328125 C69.12890625 2.4628125 69.12890625 2.7928125 69.12890625 3.1328125 C68.03389297 3.13423752 66.9388797 3.13566254 65.8106842 3.13713074 C55.46783589 3.15383376 45.12537935 3.19670835 34.78273869 3.26490307 C29.46602348 3.2991262 24.14959421 3.32427581 18.83276367 3.32836914 C13.69722717 3.33266207 8.56233516 3.36120754 3.42700005 3.40624428 C1.47234291 3.41918747 -0.48239147 3.42353828 -2.43708611 3.41896629 C-16.54032974 3.06496884 -16.54032974 3.06496884 -28.87109375 9.1328125 C-30.03396405 9.88682812 -31.20179988 10.63325341 -32.375 11.37109375 C-33.38433594 12.05558594 -34.39367187 12.74007813 -35.43359375 13.4453125 C-36.46613281 14.14269531 -37.49867187 14.84007812 -38.5625 15.55859375 C-39.70525391 16.33783203 -39.70525391 16.33783203 -40.87109375 17.1328125 C-41.53109375 16.8028125 -42.19109375 16.4728125 -42.87109375 16.1328125 C-39.85222131 12.64949815 -37.30199846 11.34124106 -32.87109375 10.1328125 C-32.87109375 9.4728125 -32.87109375 8.8128125 -32.87109375 8.1328125 C-29.91627883 5.38905579 -29.09637467 5.1328125 -24.87109375 5.1328125 C-24.87109375 4.4728125 -24.87109375 3.8128125 -24.87109375 3.1328125 C-23.51775937 2.8167276 -22.16336774 2.50516899 -20.80859375 2.1953125 C-20.05449219 2.02128906 -19.30039063 1.84726562 -18.5234375 1.66796875 C-12.30121798 0.41252829 -6.32169548 -0.01622635 0 0 Z " fill="#0161F1" transform="translate(117.87109375,265.8671875)"/>
<path d="M0 0 C0 0.66 0 1.32 0 2 C1.32 2.33 2.64 2.66 4 3 C4.12684989 8.58139535 4.12684989 8.58139535 3.375 11.0625 C2.78436102 13.13358311 2.78436102 13.13358311 4.0625 15.4375 C5.26728083 18.73056761 4.42133592 19.90650417 3 23 C3.495 23.99 3.495 23.99 4 25 C3.0625 27.625 3.0625 27.625 2 30 C2.99 30 3.98 30 5 30 C4.505 31.485 4.505 31.485 4 33 C3.76926027 36.35427201 3.61886668 39.7072787 3.4765625 43.06640625 C3.24066406 44.51853516 3.24066406 44.51853516 3 46 C2.01 46.66 1.02 47.32 0 48 C-0.02499343 43.35929747 -0.04299677 38.71863539 -0.05493164 34.07788086 C-0.05991488 32.50398067 -0.0667039 30.930085 -0.07543945 29.35620117 C-0.12323532 20.51396518 -0.0673356 11.7949897 1 3 C0.10667969 3.15210937 -0.78664062 3.30421875 -1.70703125 3.4609375 C-7.33716935 4.26301607 -13.01091134 4.40200287 -18.6875 4.625 C-19.81478516 4.6765625 -20.94207031 4.728125 -22.10351562 4.78125 C-23.18697266 4.82507813 -24.27042969 4.86890625 -25.38671875 4.9140625 C-26.85951294 4.9752124 -26.85951294 4.9752124 -28.36206055 5.03759766 C-30.77410794 5.00321956 -32.70467337 4.70337914 -35 4 C-34.67 3.01 -34.34 2.02 -34 1 C-30.95419529 1 -28.35694344 1.20733365 -25.375 1.625 C-20.75855612 2.11913549 -17.02631271 1.54173904 -12.5390625 0.48046875 C-8.36943605 -0.30855287 -4.22550418 -0.16182782 0 0 Z " fill="#0151E8" transform="translate(91,96)"/>
<path d="M0 0 C2 0 2 0 3.5078125 1.1875 C8.67696981 6.98095167 8.62028053 12.72527288 8.30859375 20.09765625 C7.77402175 26.85762366 6.70090527 33.4393654 5 40 C4.34 40 3.68 40 3 40 C3.33 40.99 3.66 41.98 4 43 C3.34838935 45.00495586 2.67735217 47.00359361 2 49 C1.46803479 51.76540693 1.00432837 54.53525447 0.5625 57.31640625 C0 60 0 60 -1.0234375 62.5390625 C-2.01823228 65.04594533 -2.38537582 67.13669661 -2.625 69.8125 C-2.69976562 70.60269531 -2.77453125 71.39289063 -2.8515625 72.20703125 C-2.90054688 72.79871094 -2.94953125 73.39039063 -3 74 C-2.34 74 -1.68 74 -1 74 C-0.34 74.99 0.32 75.98 1 77 C4.07921132 77.25660094 6.21136993 77.39431504 9 76 C10.66619446 75.9603287 12.33391013 75.95615553 14 76 C14 75.34 14 74.68 14 74 C14.99 74 15.98 74 17 74 C17 73.34 17 72.68 17 72 C19.475 71.505 19.475 71.505 22 71 C18.04366084 75.43109986 13.68279709 78.21751751 8 79.875 C4.22327123 80.0323637 1.51088021 79.39110348 -2 78 C-4.82844862 75.265833 -5.62561994 72.87060674 -6 69 C-5.46569207 65.68755357 -4.59462697 62.47701238 -3.7265625 59.23828125 C-3.48336273 58.29244675 -3.24016296 57.34661224 -2.98959351 56.37211609 C-2.21145771 53.34953018 -1.41948639 50.33082601 -0.625 47.3125 C0.16122099 44.31177264 0.94412081 41.31033362 1.71817017 38.30644226 C2.19939465 36.44011811 2.68754983 34.57556176 3.18392944 32.71321106 C5.46273728 23.89894756 7.11485462 15.75125821 4 7 C1.9884805 4.19195735 1.9884805 4.19195735 0 2 C0 1.34 0 0.68 0 0 Z " fill="#046BF5" transform="translate(37,223)"/>
<path d="M0 0 C4.34183483 1.38597148 8.49356403 3.03254285 12.6875 4.8125 C18.64253139 7.25661654 24.65341997 9.16620628 30.875 10.8125 C31.64674561 11.01915283 32.41849121 11.22580566 33.21362305 11.4387207 C56.06473163 17.26351309 80.93146611 14.68109748 103 7 C102.67 7.99 102.34 8.98 102 10 C96.95216453 12.29447067 91.97677291 13.54634201 86.53515625 14.53125 C84.95160147 14.82404903 83.37365779 15.15184053 81.80859375 15.53125 C65.35715307 19.42237336 49.19539084 18.02178697 32.890625 14.26953125 C30.91573973 13.80505842 30.91573973 13.80505842 29 15 C28.34 14.67 27.68 14.34 27 14 C27 13.34 27 12.68 27 12 C26.0409375 11.8453125 26.0409375 11.8453125 25.0625 11.6875 C15.88307496 9.62681275 8.14862364 5.59698243 0 1 C0 0.67 0 0.34 0 0 Z " fill="#0061EF" transform="translate(79,234)"/>
<path d="M0 0 C0.33 0 0.66 0 1 0 C1.02578125 0.88558594 1.0515625 1.77117187 1.078125 2.68359375 C1.48157607 11.4953318 2.86102583 19.5896583 5.0625 28.125 C6 32 6 32 6.5 35.9375 C6.665 36.948125 6.83 37.95875 7 39 C7.66 39.33 8.32 39.66 9 40 C9.20554893 41.64439141 9.41059529 43.288847 9.61328125 44.93359375 C10.98956524 52.28767688 15.58727295 58.95306151 19.35766602 65.30297852 C22 69.79388461 22 69.79388461 22 72 C22.66 72 23.32 72 24 72 C24.391875 72.886875 24.78375 73.77375 25.1875 74.6875 C26.84891941 78.121318 26.84891941 78.121318 29.75 80.625 C30.4925 81.40875 31.235 82.1925 32 83 C31.640625 85.1484375 31.640625 85.1484375 31 87 C12.65497225 65.38604444 -0.34641078 37.78116781 -0.0625 9.0625 C-0.05573242 7.75055664 -0.05573242 7.75055664 -0.04882812 6.41210938 C-0.03714834 4.27470953 -0.01921689 2.13734537 0 0 Z " fill="#036EF6" transform="translate(3,135)"/>
<path d="M0 0 C0.598125 0.185625 1.19625 0.37125 1.8125 0.5625 C4.16408762 1.22093687 4.16408762 1.22093687 7 0 C2.73031591 9.96982071 -11.40436535 15.7923197 -20.94824219 19.82275391 C-29.25848473 23.11090331 -36.74563909 25.13878147 -45.7109375 25.09765625 C-46.95488281 25.09443359 -48.19882813 25.09121094 -49.48046875 25.08789062 C-50.76566406 25.07951172 -52.05085937 25.07113281 -53.375 25.0625 C-54.68339844 25.05798828 -55.99179688 25.05347656 -57.33984375 25.04882812 C-60.55994281 25.03707594 -63.7799477 25.02064543 -67 25 C-66.67 24.34 -66.34 23.68 -66 23 C-64.58460938 23.01740234 -64.58460938 23.01740234 -63.140625 23.03515625 C-48.95568171 23.20225671 -48.95568171 23.20225671 -35 21 C-34.01 21 -33.02 21 -32 21 C-31.67 20.34 -31.34 19.68 -31 19 C-27.9518857 17.47594285 -24.9420012 16.77028692 -21.625 16.125 C-17.11233495 15.1908256 -13.9115746 13.39484159 -10 11 C-9.34 11 -8.68 11 -8 11 C-7.67 10.34 -7.34 9.68 -7 9 C-5.35636866 8.27840576 -3.68949614 7.60648579 -2 7 C-2 6.34 -2 5.68 -2 5 C-1.34 4.67 -0.68 4.34 0 4 C0 2.68 0 1.36 0 0 Z " fill="#0236AA" transform="translate(195,213)"/>
<path d="M0 0 C3.03852705 1.40976705 5.5939595 3.08870228 8.25 5.125 C8.95640625 5.66382813 9.6628125 6.20265625 10.390625 6.7578125 C10.92171875 7.16773438 11.4528125 7.57765625 12 8 C10.57476545 16.71429125 1.78649611 24.68910268 -4 31 C-4.99 30.67 -5.98 30.34 -7 30 C-6.50628906 29.46890625 -6.01257813 28.9378125 -5.50390625 28.390625 C-4.86324219 27.68421875 -4.22257812 26.9778125 -3.5625 26.25 C-2.92441406 25.55390625 -2.28632813 24.8578125 -1.62890625 24.140625 C0.01283016 21.98313927 0.42169387 20.58834104 1 18 C2.31647119 17.30062468 3.65022151 16.63270867 5 16 C5.33 15.01 5.66 14.02 6 13 C6.66 13 7.32 13 8 13 C7.81171228 10.55519921 7.81171228 10.55519921 7 8 C5.03241727 6.63979849 5.03241727 6.63979849 3 6 C3 5.34 3 4.68 3 4 C-0.52013831 5.55540995 -2.88470993 6.87908602 -5.5625 9.6875 C-8 12 -8 12 -10.5625 12.1875 C-11.366875 12.125625 -12.17125 12.06375 -13 12 C-13.680625 12.350625 -14.36125 12.70125 -15.0625 13.0625 C-17 14 -17 14 -19.25 13.625 C-19.8275 13.41875 -20.405 13.2125 -21 13 C-20 11 -20 11 -17.9609375 10.2890625 C-16.68089844 9.96035156 -16.68089844 9.96035156 -15.375 9.625 C-9.145182 7.85141805 -3.52393948 5.80413562 0 0 Z " fill="#0344CA" transform="translate(211,180)"/>
<path d="M0 0 C-0.165 0.5775 -0.33 1.155 -0.5 1.75 C-1.14462031 4.26664369 -1.14462031 4.26664369 -1 8 C-2.32255312 9.67523395 -3.65705519 11.34106818 -5 13 C-6.07585059 15.72435637 -6.07585059 15.72435637 -7 19 C-13.14023831 36.57011916 -13.14023831 36.57011916 -16 38 C-16 37.34 -16 36.68 -16 36 C-20.29 36 -24.58 36 -29 36 C-29 35.67 -29 35.34 -29 35 C-24.38 35 -19.76 35 -15 35 C-14.9175 34.0925 -14.835 33.185 -14.75 32.25 C-13.29443699 22.340208 -9.18018753 9.18018753 -2 2 C-3.98 2.33 -5.96 2.66 -8 3 C-7.67 2.01 -7.34 1.02 -7 0 C-4.3333581 -1.33332095 -2.83319697 -0.67102033 0 0 Z " fill="#066EFA" transform="translate(109,52)"/>
<path d="M0 0 C0.99 0.495 0.99 0.495 2 1 C2.4140625 3.06640625 2.4140625 3.06640625 2.625 5.5625 C2.69976562 6.38878906 2.77453125 7.21507812 2.8515625 8.06640625 C2.92503906 9.02353516 2.92503906 9.02353516 3 10 C3.66 10 4.32 10 5 10 C5.31453125 10.88042969 5.6290625 11.76085937 5.953125 12.66796875 C6.38109375 13.82941406 6.8090625 14.99085938 7.25 16.1875 C7.66765625 17.33605469 8.0853125 18.48460937 8.515625 19.66796875 C9.98415649 22.96443549 11.69893749 25.25018256 14 28 C14.433125 29.3921875 14.433125 29.3921875 14.875 30.8125 C16.42180196 35.19510556 19.10287871 38.41048494 22 42 C21.34 42.66 20.68 43.32 20 44 C12.42414387 34.38242378 6.88122321 24.21799189 2 13 C1.61585937 12.13632813 1.23171875 11.27265625 0.8359375 10.3828125 C-0.41817536 6.80800483 -0.12769655 3.76704831 0 0 Z " fill="#013FC7" transform="translate(38,156)"/>
<path d="M0 0 C0.66 0 1.32 0 2 0 C2 0.99 2 1.98 2 3 C2.66 3 3.32 3 4 3 C4.28875 3.61875 4.5775 4.2375 4.875 4.875 C5.93720042 7.13325765 5.93720042 7.13325765 8 9 C7.01 9.33 6.02 9.66 5 10 C4.29875 9.236875 3.5975 8.47375 2.875 7.6875 C-3.09999005 2.10218321 -7.94839284 1.49583975 -15.94140625 1.72265625 C-21.63087409 2.23855946 -24.51691847 4.28582283 -28.1875 8.4375 C-30.18507059 10.91218062 -32.14151386 13.41876924 -34 16 C-34.66 15.34 -35.32 14.68 -36 14 C-35.34 13.01 -34.68 12.02 -34 11 C-33.34 11 -32.68 11 -32 11 C-31.9175 10.38125 -31.835 9.7625 -31.75 9.125 C-31 7 -31 7 -28.9375 5.75 C-28.298125 5.5025 -27.65875 5.255 -27 5 C-27 4.34 -27 3.68 -27 3 C-26.34 3 -25.68 3 -25 3 C-24.67 2.01 -24.34 1.02 -24 0 C-16.5452736 -3.7273632 -7.62590995 -2.59605445 0 0 Z " fill="#046FFB" transform="translate(150,46)"/>
<path d="M0 0 C4.4110797 -0.39525804 6.5185904 0.63819219 10.125 3.125 C23.07945417 12.49526311 23.07945417 12.49526311 38.11328125 15.73046875 C40.25854998 15.17218931 40.25854998 15.17218931 43 14 C40.70626422 16.96274205 39.10127285 17.96744801 35.5 19.125 C30.19354743 19.61559656 26.04425777 16.85117616 21.5390625 14.34765625 C19.1846605 12.84372533 19.1846605 12.84372533 17 13 C16 12 15 11 14 10 C12.18854794 8.7996402 10.35276005 7.63556261 8.5 6.5 C5.32425352 4.55357474 2.50376616 2.77444358 0 0 Z " fill="#0432E8" transform="translate(223,174)"/>
<path d="M0 0 C0.33 0 0.66 0 1 0 C1.02505615 0.5576001 1.0501123 1.1152002 1.07592773 1.68969727 C1.15169561 3.36226024 1.22835554 5.03478292 1.30566406 6.70727539 C1.39394191 8.61914475 1.48051576 10.53109351 1.56542969 12.44311523 C1.76802325 16.83547679 1.99349899 21.21459479 2.39453125 25.59375 C2.51183594 26.9034375 2.62914062 28.213125 2.75 29.5625 C2.86859375 30.71878906 2.9871875 31.87507813 3.109375 33.06640625 C3 36 3 36 0 40 C0 35.71 0 31.42 0 27 C-7.26 26.67 -14.52 26.34 -22 26 C-21.505 24.515 -21.505 24.515 -21 23 C-18.79194476 22.9455548 -16.58349446 22.90700717 -14.375 22.875 C-13.14523438 22.85179688 -11.91546875 22.82859375 -10.6484375 22.8046875 C-7 23 -7 23 -1 25 C-0.67 16.75 -0.34 8.5 0 0 Z " fill="#1873F8" transform="translate(167,74)"/>
<path d="M0 0 C2.13003771 3.73724799 3.12092744 7.75880016 4.25 11.875 C6.25591086 19.01132467 8.83140968 25.62600451 11.9609375 32.33984375 C12.30382812 33.21769531 12.64671875 34.09554687 13 35 C12.67 35.66 12.34 36.32 12 37 C8.19000031 34.46000021 7.53881255 32.25005372 6 28 C6 26.68 6 25.36 6 24 C5.34 23.67 4.68 23.34 4 23 C3.67 22.67 3.34 22.34 3 22 C2.34 24.31 1.68 26.62 1 29 C0.67 29 0.34 29 0 29 C0.00785522 28.06148193 0.00785522 28.06148193 0.01586914 27.10400391 C0.03661618 24.27767943 0.04965286 21.45137095 0.0625 18.625 C0.07087891 17.64015625 0.07925781 16.6553125 0.08789062 15.640625 C0.09111328 14.69960937 0.09433594 13.75859375 0.09765625 12.7890625 C0.10289307 11.91975098 0.10812988 11.05043945 0.11352539 10.15478516 C0.14122351 7.94950006 0.14122351 7.94950006 -1 6 C-0.71887936 3.99199544 -0.38932033 1.98985949 0 0 Z " fill="#065DEA" transform="translate(170,110)"/>
<path d="M0 0 C0.21398438 0.64839844 0.42796875 1.29679688 0.6484375 1.96484375 C1.83402518 4.26970336 1.83402518 4.26970336 4.4765625 4.50390625 C5.51554687 4.52324219 6.55453125 4.54257813 7.625 4.5625 C13.15725507 4.81030538 18.39248628 5.49852642 23.8125 6.5625 C24.52422363 6.70179932 25.23594727 6.84109863 25.96923828 6.98461914 C27.64728203 7.31746619 29.32382244 7.65787903 31 8 C31 8.33 31 8.66 31 9 C35.95 9.99 35.95 9.99 41 11 C41 11.33 41 11.66 41 12 C34.57470148 12.25587472 28.6188579 11.73824148 22.30078125 10.56640625 C17.31200816 9.71034459 12.28138792 9.19998225 7.25 8.66015625 C3.96202874 7.99228709 2.33868182 7.37341472 0 5 C-0.25 2.3125 -0.25 2.3125 0 0 Z " fill="#8AD4FB" transform="translate(49,132)"/>
<path d="M0 0 C0.33 0 0.66 0 1 0 C1.67647306 9.19278575 2.0470509 18.27225644 1.96875 27.4921875 C2.01214637 32.36343018 2.43698354 37.16409076 3 42 C2.34 42 1.68 42 1 42 C1 44.97 1 47.94 1 51 C0.67 51 0.34 51 0 51 C-0.68264479 37.98799146 -1.14145944 25.0299864 -1 12 C-1 11.01 -1 10.02 -1 9 C-0.84872598 7.43593472 -0.68097478 5.87340748 -0.5 4.3125 C-0.4071875 3.50425781 -0.314375 2.69601563 -0.21875 1.86328125 C-0.1465625 1.24839844 -0.074375 0.63351563 0 0 Z " fill="#073DEE" transform="translate(180,46)"/>
<path d="M0 0 C0.99 0.495 0.99 0.495 2 1 C2.66 2.98 3.32 4.96 4 7 C18.85 7.33 33.7 7.66 49 8 C49 8.33 49 8.66 49 9 C43.35804201 10.60484829 38.4107539 11.2786615 32.5625 11.1953125 C31.79695801 11.1924826 31.03141602 11.18965271 30.24267578 11.18673706 C27.82828276 11.17565648 25.41427846 11.15057601 23 11.125 C21.35026582 11.11495448 19.70052576 11.1058314 18.05078125 11.09765625 C14.03370732 11.07575712 10.01691927 11.04131325 6 11 C6 10.34 6 9.68 6 9 C4.35 8.67 2.7 8.34 1 8 C0.67 5.36 0.34 2.72 0 0 Z " fill="#0032B7" transform="translate(110,190)"/>
<path d="M0 0 C3.38441658 1.46362131 5.57301275 3.33918066 8.15234375 5.95703125 C8.92900391 6.74013672 9.70566406 7.52324219 10.50585938 8.33007812 C11.30830078 9.14927734 12.11074219 9.96847656 12.9375 10.8125 C13.73607422 11.62009766 14.53464844 12.42769531 15.35742188 13.25976562 C16.89895123 14.81917519 18.43842756 16.38061759 19.97558594 17.94433594 C21.60420268 19.59809292 23.24060642 21.24262879 24.88671875 22.87890625 C27.49349248 25.49531686 29.80222175 28.02653531 32 31 C31.67 31.99 31.34 32.98 31 34 C30.01 34 29.02 34 28 34 C27.34 31.36 26.68 28.72 26 26 C24.68 25.67 23.36 25.34 22 25 C22 24.34 22 23.68 22 23 C21.360625 22.7525 20.72125 22.505 20.0625 22.25 C19.381875 21.8375 18.70125 21.425 18 21 C17.855625 20.34 17.71125 19.68 17.5625 19 C17.376875 18.34 17.19125 17.68 17 17 C16.23558594 16.71898438 15.47117188 16.43796875 14.68359375 16.1484375 C11.50803575 14.78946508 10.47023941 13.42236822 8.5 10.625 C5.95117424 7.15034256 3.45060948 4.61409809 0 2 C0 1.34 0 0.68 0 0 Z " fill="#0049ED" transform="translate(216,105)"/>
<path d="M0 0 C3.47691793 1.15897264 4.22015595 1.8640843 6 5 C6.5 8.0625 6.5 8.0625 6 11 C5.20207031 11.37640625 4.40414062 11.7528125 3.58203125 12.140625 C0.68193971 14.2290419 0.54574749 14.68430717 -0.14453125 18.01171875 C-0.38940172 19.56697716 -0.61138551 21.12598047 -0.8125 22.6875 C-0.99329102 23.88342773 -0.99329102 23.88342773 -1.17773438 25.10351562 C-1.47154332 27.0661594 -1.73841583 29.03280199 -2 31 C-2.33 31 -2.66 31 -3 31 C-3.09261303 24.80727529 -2.79265029 18.83422619 -2.0625 12.6875 C-1.97548828 11.90310547 -1.88847656 11.11871094 -1.79882812 10.31054688 C-1.39502317 6.78996591 -0.91470971 3.42956309 0 0 Z " fill="#85D1F8" transform="translate(181,146)"/>
<path d="M0 0 C0.33 0.66 0.66 1.32 1 2 C1.66 2.33 2.32 2.66 3 3 C2.690625 3.721875 2.38125 4.44375 2.0625 5.1875 C0.93636634 7.92439324 0.93636634 7.92439324 0.5 10.625 C0 13 0 13 -2 16 C-3.33038998 21.80850004 -3.32511167 27.78514995 -3.51757812 33.71875 C-3.78367154 39.78367154 -3.78367154 39.78367154 -6 42 C-6.84072599 36.53528104 -7.06072011 31.56858338 -6.375 26.0625 C-6.28943848 25.34392822 -6.20387695 24.62535645 -6.11572266 23.88500977 C-5.00911339 15.66562938 -2.57745294 7.86024769 0 0 Z " fill="#0360EF" transform="translate(41,99)"/>
<path d="M0 0 C0.66 0 1.32 0 2 0 C1.69818298 3.04560813 1.03117949 3.97140088 -1.265625 6.078125 C-2.25046875 6.79484375 -3.2353125 7.5115625 -4.25 8.25 C-4.77851563 8.63478516 -5.30703125 9.01957031 -5.8515625 9.41601562 C-21.93547492 20.95037066 -21.93547492 20.95037066 -28 22 C-28 20.68 -28 19.36 -28 18 C-27.33613281 17.75765625 -26.67226563 17.5153125 -25.98828125 17.265625 C-17.67768353 14.34717121 -17.67768353 14.34717121 -12 8 C-9.68745988 6.95281202 -7.3514852 5.95653635 -5 5 C-2.69769234 4.10168984 -2.69769234 4.10168984 -1 3 C-0.67 2.01 -0.34 1.02 0 0 Z " fill="#0354F6" transform="translate(296,166)"/>
<path d="M0 0 C2.97 0.33 5.94 0.66 9 1 C9.33 1.99 9.66 2.98 10 4 C8.2864574 5.2303896 6.55344814 6.43370391 4.8125 7.625 C3.84957031 8.29789063 2.88664063 8.97078125 1.89453125 9.6640625 C-1 11 -1 11 -3.86328125 10.2109375 C-4.56839844 9.81132812 -5.27351562 9.41171875 -6 9 C-3.375 3.25 -3.375 3.25 0 1 C0 0.67 0 0.34 0 0 Z " fill="#4EB2F6" transform="translate(173,207)"/>
<path d="M0 0 C0 0.66 0 1.32 0 2 C0.66 2.33 1.32 2.66 2 3 C-4.90641344 3.99384974 -11.78122116 4.34916941 -18.75 4.625 C-19.87277344 4.6765625 -20.99554688 4.728125 -22.15234375 4.78125 C-23.23128906 4.82507813 -24.31023437 4.86890625 -25.421875 4.9140625 C-26.39737305 4.9548291 -27.37287109 4.9955957 -28.37792969 5.03759766 C-30.78308403 5.00311034 -32.71075697 4.70058147 -35 4 C-34.67 3.01 -34.34 2.02 -34 1 C-30.95419529 1 -28.35694344 1.20733365 -25.375 1.625 C-20.75855612 2.11913549 -17.02631271 1.54173904 -12.5390625 0.48046875 C-8.36943605 -0.30855287 -4.22550418 -0.16182782 0 0 Z " fill="#0456F4" transform="translate(91,96)"/>
<path d="M0 0 C3.46341528 0.61762936 5.5267157 1.95030776 8.3125 4.0625 C18.05763924 11.06232716 29.01520386 16.24981788 40 21 C40 21.33 40 21.66 40 22 C38.54077307 21.88590407 37.08259402 21.75834456 35.625 21.625 C34.81289062 21.55539063 34.00078125 21.48578125 33.1640625 21.4140625 C31 21 31 21 29 19 C27.35008418 18.29289322 25.6792238 17.63437344 24 17 C19.89258786 15.37119863 17.06395571 14.1006059 14 11 C12.18384822 9.6433565 10.34868273 8.31196839 8.5 7 C5.43941523 4.8279721 2.55327644 2.76029885 0 0 Z " fill="#00259D" transform="translate(76,203)"/>
<path d="M0 0 C6.93 0.495 6.93 0.495 14 1 C15.0503356 12.02852381 15.09932705 22.93055223 15 34 C12.95119029 30.92678544 12.73530727 30.1198468 12.62109375 26.62109375 C12.56985352 25.36329102 12.56985352 25.36329102 12.51757812 24.08007812 C12.49115234 23.20802734 12.46472656 22.33597656 12.4375 21.4375 C12.37764815 19.70689012 12.31402746 17.97640523 12.24609375 16.24609375 C12.22216553 15.47966553 12.1982373 14.7132373 12.17358398 13.92358398 C12.11046375 11.91674634 12.11046375 11.91674634 11 10 C11.28241883 7.6599583 11.61250787 5.32495277 12 3 C7.71 2.67 3.42 2.34 -1 2 C-0.67 1.34 -0.34 0.68 0 0 Z " fill="#E6F6FB" transform="translate(153,100)"/>
<path d="M0 0 C0 0.33 0 0.66 0 1 C-6.93 2.32 -13.86 3.64 -21 5 C-20.67 5.66 -20.34 6.32 -20 7 C-21.98 7.33 -23.96 7.66 -26 8 C-26.33 10.97 -26.66 13.94 -27 17 C-27.33 17 -27.66 17 -28 17 C-28 12.71 -28 8.42 -28 4 C-18.88119231 0.35247692 -9.75379141 -0.34560678 0 0 Z " fill="#0558F5" transform="translate(207,39)"/>
<path d="M0 0 C2.69242497 1.34621248 2.66406591 2.49705294 3.625 5.3125 C6.39813309 12.39826286 9.87303953 20.42701847 16.53125 24.578125 C19.00438794 25.57631923 21.41879685 26.33749119 24 27 C25.19625 27.4125 26.3925 27.825 27.625 28.25 C28.40875 28.4975 29.1925 28.745 30 29 C30 29.33 30 29.66 30 30 C22.13752391 30.85461697 16.53637193 27.25725868 10.0625 23.125 C6.54731008 19.50328917 4.97947911 14.89739553 4 10 C3.34 10 2.68 10 2 10 C1.34 6.7 0.68 3.4 0 0 Z " fill="#0235C6" transform="translate(52,163)"/>
<path d="M0 0 C0.33 0 0.66 0 1 0 C1.19601608 1.74906659 1.38147403 3.49931846 1.5625 5.25 C1.66691406 6.22453125 1.77132812 7.1990625 1.87890625 8.203125 C1.98974468 10.7631352 1.77738092 12.58148159 1 15 C0.67 14.67 0.34 14.34 0 14 C0 15.98 0 17.96 0 20 C-0.66 20 -1.32 20 -2 20 C-2.33 20.66 -2.66 21.32 -3 22 C-3.17015625 21.23816406 -3.3403125 20.47632812 -3.515625 19.69140625 C-5.06563881 13.08735803 -6.97721166 7.07626488 -10 1 C-8.140625 1.21484375 -8.140625 1.21484375 -6 2 C-4.734375 4.06640625 -4.734375 4.06640625 -3.75 6.5625 C-3.41484375 7.38878906 -3.0796875 8.21507812 -2.734375 9.06640625 C-2.49203125 9.70449219 -2.2496875 10.34257813 -2 11 C-1.28715011 8.43262656 -1 6.52430463 -1 3.8125 C-1 1 -1 1 0 0 Z " fill="#0877FB" transform="translate(166,55)"/>
<path d="M0 0 C1.64258789 0.00676758 1.64258789 0.00676758 3.31835938 0.01367188 C5.98313309 0.02530844 8.64778517 0.04165436 11.3125 0.0625 C8.3125 2.0625 8.3125 2.0625 4.3125 2.0625 C3.9825 2.7225 3.6525 3.3825 3.3125 4.0625 C3.3125 3.4025 3.3125 2.7425 3.3125 2.0625 C-10.0525 2.5575 -10.0525 2.5575 -23.6875 3.0625 C-24.0175 4.7125 -24.3475 6.3625 -24.6875 8.0625 C-25.33139782 10.06994615 -25.99312253 12.07195124 -26.6875 14.0625 C-27.0175 14.0625 -27.3475 14.0625 -27.6875 14.0625 C-26.76803691 4.86786913 -26.76803691 4.86786913 -23.6875 1.0625 C-16.06081114 -0.60130182 -7.76587233 -0.06182262 0 0 Z " fill="#D3F4FC" transform="translate(78.6875,99.9375)"/>
<path d="M0 0 C0 0.66 0 1.32 0 2 C-4.75 3.125 -4.75 3.125 -7 2 C-7.33 2.66 -7.66 3.32 -8 4 C-8 3.34 -8 2.68 -8 2 C-8.85803223 2.24556641 -8.85803223 2.24556641 -9.73339844 2.49609375 C-12.00865461 3.00192407 -13.94044482 3.09975255 -16.265625 3.0625 C-17.47798828 3.05089844 -17.47798828 3.05089844 -18.71484375 3.0390625 C-20.38932664 3.01326153 -22.06380592 2.9872244 -23.73828125 2.9609375 C-28.93133857 2.91155819 -33.86025989 3.24206598 -39 4 C-39.33 3.34 -39.66 2.68 -40 2 C-26.76343476 -0.69544601 -13.43951357 -0.19706032 0 0 Z " fill="#0BA1FB" transform="translate(149,5)"/>
<path d="M0 0 C2.78637633 4.1795645 1.79562512 6.14668677 1 11 C1.66 11 2.32 11 3 11 C3.99 12.485 3.99 12.485 5 14 C8.07921132 14.25660094 10.21136993 14.39431504 13 13 C14.66619446 12.9603287 16.33391013 12.95615553 18 13 C18 12.34 18 11.68 18 11 C18.99 11 19.98 11 21 11 C21 10.34 21 9.68 21 9 C22.65 8.67 24.3 8.34 26 8 C22.04366084 12.43109986 17.68279709 15.21751751 12 16.875 C8.22327123 17.0323637 5.51088021 16.39110348 2 15 C-0.76538424 12.32679524 -1.72721524 9.81898667 -2 6 C-1.0625 2.6875 -1.0625 2.6875 0 0 Z " fill="#045CEE" transform="translate(33,286)"/>
<path d="M0 0 C1.90765822 2.86148733 2.4283509 4.35300379 3.0625 7.625 C3.47094016 10.59769652 3.47094016 10.59769652 5 13 C5.07179964 14.51928038 5.08392007 16.04167482 5.0625 17.5625 C5.05347656 18.38878906 5.04445313 19.21507812 5.03515625 20.06640625 C5.02355469 20.70449219 5.01195313 21.34257812 5 22 C-1.63093294 21.65226572 -7.053928 21.03910346 -13 18 C-13 17.67 -13 17.34 -13 17 C-7.147205 17.51482919 -1.6702363 18.45357192 4 20 C3.79503906 19.39414063 3.59007813 18.78828125 3.37890625 18.1640625 C1.4279788 12.09658479 0.3922385 6.35696876 0 0 Z " fill="#0025AE" transform="translate(96,176)"/>
<path d="M0 0 C2.32286474 3.48429711 2.08480112 4.92954615 2 9 C2.33 9.99 2.66 10.98 3 12 C4.7634375 11.7215625 4.7634375 11.7215625 6.5625 11.4375 C10.54829691 10.94104843 14.05379718 11.11411774 18 12 C18.33 12.66 18.66 13.32 19 14 C12.4 14.33 5.8 14.66 -1 15 C-0.67 10.05 -0.34 5.1 0 0 Z " fill="#B2E8FC" transform="translate(105,130)"/>
<path d="M0 0 C0.66 0 1.32 0 2 0 C2.33 0.99 2.66 1.98 3 3 C2.11957031 3.79664062 1.23914063 4.59328125 0.33203125 5.4140625 C-0.84133256 6.48417029 -2.01449915 7.55449437 -3.1875 8.625 C-3.76564453 9.14707031 -4.34378906 9.66914062 -4.93945312 10.20703125 C-7.74887175 12.77836355 -10.3590649 15.3433649 -12.75 18.3125 C-15.08181052 21.09771813 -16.55626832 22.01607666 -20 23 C-15.54804305 17.68238476 -10.88198991 12.59044103 -6.13964844 7.5324707 C-3.87487366 5.10257115 -1.84693514 2.77040271 0 0 Z " fill="#0080FA" transform="translate(298,80)"/>
<path d="M0 0 C1.1446875 0.1546875 1.1446875 0.1546875 2.3125 0.3125 C2.6425 0.9725 2.9725 1.6325 3.3125 2.3125 C1.6625 2.6425 0.0125 2.9725 -1.6875 3.3125 C-1.873125 5.16875 -1.873125 5.16875 -2.0625 7.0625 C-2.2968085 9.40558497 -2.52862482 11.02950358 -3.6875 13.09375 C-5.14050838 16.31761235 -5.15458614 19.58181541 -5.3125 23.0625 C-5.35117188 23.75988281 -5.38984375 24.45726563 -5.4296875 25.17578125 C-5.52348624 26.88760818 -5.60656174 28.60001682 -5.6875 30.3125 C-6.3475 30.3125 -7.0075 30.3125 -7.6875 30.3125 C-7.6875 24.0425 -7.6875 17.7725 -7.6875 11.3125 C-7.0275 11.3125 -6.3675 11.3125 -5.6875 11.3125 C-5.749375 10.425625 -5.81125 9.53875 -5.875 8.625 C-5.62086945 4.13536022 -4.90907603 0.57082279 0 0 Z " fill="#0170F5" transform="translate(107.6875,95.6875)"/>
<path d="M0 0 C-0.32433508 5.35152885 -3.49704824 8.28280043 -7 12 C-7.66 11.67 -8.32 11.34 -9 11 C-8.54625 10.4225 -8.0925 9.845 -7.625 9.25 C-5.77047097 6.8094951 -5.77047097 6.8094951 -4 3 C-11.26 2.67 -18.52 2.34 -26 2 C-26 1.67 -26 1.34 -26 1 C-8.14350797 -0.14806378 -8.14350797 -0.14806378 0 0 Z " fill="#63D3FA" transform="translate(154,210)"/>
<path d="M0 0 C-2.62410507 8.64411081 -6.31383762 16.76925385 -10 25 C-10.66 24.34 -11.32 23.68 -12 23 C-8.535 15.575 -8.535 15.575 -5 8 C-5.66 8 -6.32 8 -7 8 C-6.65930765 4.84859577 -6.41923159 3.39218439 -4.0625 1.1875 C-2 0 -2 0 0 0 Z " fill="#0598FB" transform="translate(283,194)"/>
<path d="M0 0 C-2.84185903 2.93066713 -5.74026642 5.63365622 -8.875 8.25 C-13.24637052 12.01469742 -16.62240224 16.34524809 -20 21 C-20.99 20.67 -21.98 20.34 -23 20 C-23 19.34 -23 18.68 -23 18 C-22.21625 17.773125 -21.4325 17.54625 -20.625 17.3125 C-17.26974877 15.63487438 -17.34518851 14.40253565 -16 11 C-14.02043058 9.30911778 -12.02054804 7.64169528 -10 6 C-9.649375 5.29875 -9.29875 4.5975 -8.9375 3.875 C-6.97098381 -0.05803237 -4.03867772 -1.34622591 0 0 Z " fill="#0358F9" transform="translate(85,64)"/>
<path d="M0 0 C0.66 0.99 1.32 1.98 2 3 C1.390625 5.09375 1.390625 5.09375 0.25 7.5 C-2.10812985 12.90139201 -3.1604188 18.18921433 -4 24 C-4.99 24.33 -5.98 24.66 -7 25 C-5.86898396 12.60695187 -5.86898396 12.60695187 -4 7 C-3.34 7 -2.68 7 -2 7 C-1.855625 6.21625 -1.71125 5.4325 -1.5625 4.625 C-1 2 -1 2 0 0 Z " fill="#045BEF" transform="translate(53,99)"/>
<path d="M0 0 C0.66 0.33 1.32 0.66 2 1 C0.90653119 2.34212062 -0.2001575 3.67347975 -1.3125 5 C-1.92738281 5.7425 -2.54226562 6.485 -3.17578125 7.25 C-5 9 -5 9 -8 9 C-8 9.66 -8 10.32 -8 11 C-8.99 11 -9.98 11 -11 11 C-11 11.66 -11 12.32 -11 13 C-14.82942948 15.90108294 -18.27536912 16.53680089 -23 17 C-20.47744382 14.14167695 -17.6385824 12.57274426 -14.3125 10.75 C-8.94617912 7.69191435 -4.43094754 4.28759335 0 0 Z " fill="#0129A7" transform="translate(191,205)"/>
<path d="M0 0 C0.99 0.33 1.98 0.66 3 1 C2.01 2.485 2.01 2.485 1 4 C2.19496094 3.87431641 2.19496094 3.87431641 3.4140625 3.74609375 C13.93848858 2.73462214 13.93848858 2.73462214 19 4 C16.64641749 6.35358251 16.07031606 6.27871904 12.8671875 6.4140625 C11.65869141 6.47207031 11.65869141 6.47207031 10.42578125 6.53125 C9.16314453 6.57765625 9.16314453 6.57765625 7.875 6.625 C6.60076172 6.68300781 6.60076172 6.68300781 5.30078125 6.7421875 C3.20088316 6.83656494 1.10047109 6.91937586 -1 7 C-1.04254356 5.00045254 -1.04080783 2.99958364 -1 1 C-0.67 0.67 -0.34 0.34 0 0 Z " fill="#025BF7" transform="translate(61,85)"/>
<path d="M0 0 C-1.00160156 0.66386719 -2.00320312 1.32773437 -3.03515625 2.01171875 C-4.37764614 2.90358266 -5.72009168 3.79551332 -7.0625 4.6875 C-8.04766602 5.34008789 -8.04766602 5.34008789 -9.05273438 6.00585938 C-13.43322171 8.91899135 -17.73417366 11.92128268 -22 15 C-22.33 14.34 -22.66 13.68 -23 13 C-22.67 12.34 -22.34 11.68 -22 11 C-21.34 11 -20.68 11 -20 11 C-20 10.34 -20 9.68 -20 9 C-19.01 8.67 -18.02 8.34 -17 8 C-16.34 7.34 -15.68 6.68 -15 6 C-12.875 5.375 -12.875 5.375 -11 5 C-11 4.34 -11 3.68 -11 3 C-4.296875 -1.25390625 -4.296875 -1.25390625 0 0 Z " fill="#0297FC" transform="translate(80,39)"/>
<path d="M0 0 C1.39456452 0.00667256 2.78911118 0.01863093 4.18359375 0.03515625 C4.89451172 0.03966797 5.60542969 0.04417969 6.33789062 0.04882812 C8.09899388 0.06064761 9.86005411 0.07858362 11.62109375 0.09765625 C11.62109375 0.75765625 11.62109375 1.41765625 11.62109375 2.09765625 C8.60896346 3.6037214 5.50826753 3.21925956 2.20703125 3.1953125 C1.47739166 3.19389755 0.74775208 3.1924826 -0.0039978 3.19102478 C-2.3373421 3.18542156 -4.67059089 3.1728686 -7.00390625 3.16015625 C-8.58463403 3.15514166 -10.16536332 3.15057868 -11.74609375 3.14648438 C-15.62373479 3.13545109 -19.50130432 3.11818436 -23.37890625 3.09765625 C-23.37890625 2.76765625 -23.37890625 2.43765625 -23.37890625 2.09765625 C-22.80857666 2.0726001 -22.23824707 2.04754395 -21.65063477 2.02172852 C-19.08064468 1.90609076 -16.51105098 1.78322001 -13.94140625 1.66015625 C-13.04357422 1.62083984 -12.14574219 1.58152344 -11.22070312 1.54101562 C-10.36669922 1.49912109 -9.51269531 1.45722656 -8.6328125 1.4140625 C-7.84205322 1.37740479 -7.05129395 1.34074707 -6.23657227 1.30297852 C-3.24840545 0.97270538 -3.60208523 0.10410651 0 0 Z " fill="#0020A2" transform="translate(143.37890625,206.90234375)"/>
<path d="M0 0 C0.598125 0.185625 1.19625 0.37125 1.8125 0.5625 C4.16408762 1.22093687 4.16408762 1.22093687 7 0 C4.14979058 6.89811324 -3.38512441 11.11659269 -10 14 C-10 13.01 -10 12.02 -10 11 C-9.34 11 -8.68 11 -8 11 C-7.67 10.34 -7.34 9.68 -7 9 C-5.35636866 8.27840576 -3.68949614 7.60648579 -2 7 C-2 6.34 -2 5.68 -2 5 C-1.34 4.67 -0.68 4.34 0 4 C0 2.68 0 1.36 0 0 Z " fill="#033CB4" transform="translate(195,213)"/>
<path d="M0 0 C0.886875 0.309375 1.77375 0.61875 2.6875 0.9375 C5.88251165 2.04393171 5.88251165 2.04393171 8.8125 2.5 C9.8953125 2.7475 9.8953125 2.7475 11 3 C11.33 3.66 11.66 4.32 12 5 C13.65 5 15.3 5 17 5 C17 5.66 17 6.32 17 7 C19.475 7.495 19.475 7.495 22 8 C21.67 8.66 21.34 9.32 21 10 C16.23150923 9.39936061 12.0753131 8.0166965 7.6875 6.125 C6.73907227 5.74021484 6.73907227 5.74021484 5.77148438 5.34765625 C4.14104793 4.65214317 2.56461984 3.83308235 1 3 C0.67 2.01 0.34 1.02 0 0 Z " fill="#0132A7" transform="translate(90,225)"/>
<path d="M0 0 C0.66 0.33 1.32 0.66 2 1 C-1.47712995 4.73155409 -4.50102755 7.51231503 -9.0546875 9.921875 C-12.85756925 12.02949621 -16.40747164 14.55610316 -20 17 C-18.45925194 12.71572636 -15.21451142 10.54850623 -11.6875 7.9375 C-11.11837891 7.50373047 -10.54925781 7.06996094 -9.96289062 6.62304688 C-6.76480064 4.21071034 -3.57437454 1.82830839 0 0 Z " fill="#059BFB" transform="translate(66,24)"/>
<path d="M0 0 C1.32 0.66 2.64 1.32 4 2 C-0.01535068 3.90079664 -3.18996591 4.23570807 -7.61328125 4.1953125 C-8.86044922 4.18886719 -10.10761719 4.18242187 -11.39257812 4.17578125 C-12.68615234 4.15902344 -13.97972656 4.14226562 -15.3125 4.125 C-16.62541016 4.11597656 -17.93832031 4.10695312 -19.29101562 4.09765625 C-22.52752913 4.07411797 -25.76367149 4.0412352 -29 4 C-28.67 3.34 -28.34 2.68 -28 2 C-26.58460938 2.01740234 -26.58460938 2.01740234 -25.140625 2.03515625 C-13.03953264 2.12241182 -13.03953264 2.12241182 -1 1 C-0.67 0.67 -0.34 0.34 0 0 Z " fill="#00228E" transform="translate(157,234)"/>
<path d="M0 0 C8.58 0 17.16 0 26 0 C26 0.33 26 0.66 26 1 C24.83082031 1.06058594 23.66164062 1.12117187 22.45703125 1.18359375 C20.90884386 1.26804034 19.36066732 1.35268625 17.8125 1.4375 C17.04357422 1.47681641 16.27464844 1.51613281 15.48242188 1.55664062 C11.56748925 1.77507034 7.82879312 2.08692108 4 3 C4.99 4.3921875 4.99 4.3921875 6 5.8125 C8 9 8 9 8 12 C7.03328244 10.94512267 6.07701255 9.88066719 5.125 8.8125 C4.59132813 8.22082031 4.05765625 7.62914062 3.5078125 7.01953125 C2 5 2 5 0 0 Z " fill="#3EBAF7" transform="translate(119,210)"/>
<path d="M0 0 C3.67895319 0.45048406 6.98079646 0.99348451 10.5 2.1875 C14.8718325 3.20238969 16.85495365 2.52267009 21 1 C18.62377392 4.06929203 17.09235169 4.97339019 13.3125 6.0625 C8.05750418 6.53752787 4.22818113 3.82857488 0 1 C0 0.67 0 0.34 0 0 Z " fill="#0643ED" transform="translate(245,187)"/>
<path d="M0 0 C0 0.33 0 0.66 0 1 C3.3 1.66 6.6 2.32 10 3 C10 3.33 10 3.66 10 4 C0.71417006 4.44218238 -7.92981571 2.76773893 -17 1 C-17 0.67 -17 0.34 -17 0 C-11.23073111 -1.40333568 -5.81856895 -0.67296616 0 0 Z " fill="#9CDBFB" transform="translate(80,140)"/>
<path d="M0 0 C0 4 0 4 -1.609375 5.81640625 C-2.66898438 6.68072266 -2.66898438 6.68072266 -3.75 7.5625 C-4.44609375 8.14128906 -5.1421875 8.72007813 -5.859375 9.31640625 C-7.88430794 10.90900862 -9.93019093 12.46629012 -12 14 C-12.33 13.01 -12.66 12.02 -13 11 C-11.40559179 9.15730683 -9.80058539 7.32621907 -8.1875 5.5 C-7.73568359 4.97535156 -7.28386719 4.45070313 -6.81835938 3.91015625 C-3.33984375 0 -3.33984375 0 0 0 Z " fill="#0396FB" transform="translate(44,43)"/>
<path d="M0 0 C0.99 0.33 1.98 0.66 3 1 C-5.62639772 5.72010441 -14.0942904 8.56070054 -24 8 C-24 7.67 -24 7.34 -24 7 C-17.53866871 4.98440772 -11.05098757 3.22613877 -4.46875 1.6484375 C-2.02005084 1.09557566 -2.02005084 1.09557566 0 0 Z " fill="#0375F9" transform="translate(226,260)"/>
<path d="M0 0 C3.13085385 -0.04682901 5.98967311 0.09845632 9 1 C11.41323472 3.52091185 13 6.42616004 13 10 C11.375 10.8125 11.375 10.8125 9 11 C6.75390165 9.53181864 4.97621323 7.84147142 3 6 C3.66 5.67 4.32 5.34 5 5 C5.66 5.33 6.32 5.66 7 6 C7 4.68 7 3.36 7 2 C4.69 1.67 2.38 1.34 0 1 C0 0.67 0 0.34 0 0 Z " fill="#44ABF2" transform="translate(96,209)"/>
<path d="M0 0 C3.37404518 3.23908338 6.3888465 6.73272547 9.4140625 10.29296875 C11.94828282 13.02068865 14.03446667 13.20344667 17.625 13.5625 C18.44226563 13.64628906 19.25953125 13.73007813 20.1015625 13.81640625 C20.72804687 13.87699219 21.35453125 13.93757812 22 14 C20 16 20 16 18.0546875 16.1953125 C16.03645833 16.13020833 14.01822917 16.06510417 12 16 C12 15.34 12 14.68 12 14 C10.700625 13.7834375 10.700625 13.7834375 9.375 13.5625 C4.57069661 11.33828547 2.34656282 7.66816221 0 3 C0 2.01 0 1.02 0 0 Z " fill="#001F94" transform="translate(119,212)"/>
<path d="M0 0 C1 3 1 3 -0.21484375 5.48046875 C-0.78332031 6.37378906 -1.35179687 7.26710937 -1.9375 8.1875 C-2.50339844 9.08855469 -3.06929687 9.98960937 -3.65234375 10.91796875 C-4.09707031 11.60503906 -4.54179687 12.29210937 -5 13 C-3.35 13 -1.7 13 0 13 C-1.6875 14.5625 -1.6875 14.5625 -4 16 C-6.75 15.6875 -6.75 15.6875 -9 15 C-8.625 13.0625 -8.625 13.0625 -8 11 C-7.34 10.67 -6.68 10.34 -6 10 C-4.38166063 7.60485773 -3.14112533 5.56450133 -2.4375 2.75 C-2.293125 2.1725 -2.14875 1.595 -2 1 C-1.34 0.67 -0.68 0.34 0 0 Z " fill="#012AA1" transform="translate(167,209)"/>
<path d="M0 0 C-3.93619919 2.81157085 -7.42657339 4.50866524 -12 6 C-12.680625 6.5775 -13.36125 7.155 -14.0625 7.75 C-15.0215625 8.36875 -15.0215625 8.36875 -16 9 C-18.75 8.1875 -18.75 8.1875 -21 7 C-20.67 6.34 -20.34 5.68 -20 5 C-19.195625 4.896875 -18.39125 4.79375 -17.5625 4.6875 C-13.29165125 3.86330112 -10.13217869 2.08387646 -6.3671875 -0.0390625 C-3.70403946 -1.1201424 -2.63812082 -1.00905082 0 0 Z " fill="#039FFC" transform="translate(275,201)"/>
<path d="M0 0 C1.32 0.33 2.64 0.66 4 1 C4 1.66 4 2.32 4 3 C4.99 3.33 5.98 3.66 7 4 C7.6875 6.0625 7.6875 6.0625 8 8 C8.78375 7.525625 9.5675 7.05125 10.375 6.5625 C11.88948678 5.66101977 13.4235897 4.78820515 15 4 C15 8 15 8 13.6875 9.75 C12 11 12 11 9 11 C9 10.34 9 9.68 9 9 C8.443125 8.79375 7.88625 8.5875 7.3125 8.375 C4.05356595 6.43725543 2.30433531 4.00843777 0 1 C0 0.67 0 0.34 0 0 Z " fill="#0155F3" transform="translate(237,103)"/>
<path d="M0 0 C0.66 0.66 1.32 1.32 2 2 C1.62585206 5.1507195 0.28555305 7.38218647 -1.4375 10 C-3.14153038 12.60436882 -4.65273665 15.19267917 -6 18 C-6.66 17.67 -7.32 17.34 -8 17 C-6.3341708 10.83643195 -3.12194714 5.51740344 0 0 Z " fill="#0267F5" transform="translate(50,82)"/>
<path d="M0 0 C3.66881155 0.70554068 6.70450534 2.27735506 10 4 C10 4.66 10 5.32 10 6 C4.39 6.66 -1.22 7.32 -7 8 C-3.63356777 4.63356777 -2.48173046 4.68200246 2 4 C2.33 3.34 2.66 2.68 3 2 C2.01 1.67 1.02 1.34 0 1 C0 0.67 0 0.34 0 0 Z " fill="#0997FC" transform="translate(202,23)"/>
<path d="M0 0 C0.99 0 1.98 0 3 0 C3 0.66 3 1.32 3 2 C3.5775 2.28875 4.155 2.5775 4.75 2.875 C6.83333333 3.91666667 8.91666667 4.95833333 11 6 C11 6.66 11 7.32 11 8 C11.99 8 12.98 8 14 8 C14 8.66 14 9.32 14 10 C14.66 10 15.32 10 16 10 C16.33 10.99 16.66 11.98 17 13 C12.92957149 11.56643667 9.73739812 9.59321998 6.25 7.0625 C5.28578125 6.37285156 4.3215625 5.68320313 3.328125 4.97265625 C1 3 1 3 0 0 Z " fill="#0236B5" transform="translate(74,214)"/>
<path d="M0 0 C-1.36577456 4.28493007 -3.20681345 6.43145705 -6.625 9.3125 C-7.44226563 10.00988281 -8.25953125 10.70726562 -9.1015625 11.42578125 C-9.72804687 11.94527344 -10.35453125 12.46476563 -11 13 C-11.99 12.67 -12.98 12.34 -14 12 C-12.85807217 10.85807217 -11.71550762 9.71677615 -10.5703125 8.578125 C-9.42984968 7.43198823 -8.30112694 6.27413185 -7.1796875 5.109375 C-6.56351563 4.47515625 -5.94734375 3.8409375 -5.3125 3.1875 C-4.73113281 2.58292969 -4.14976562 1.97835937 -3.55078125 1.35546875 C-2 0 -2 0 0 0 Z " fill="#005CF6" transform="translate(260,123)"/>
<path d="M0 0 C3.30485575 -0.17393978 5.01074434 -0.25726111 8 1 C10.84374068 4.39378724 12.89423422 8.11856145 15 12 C15.99 13.485 15.99 13.485 17 15 C13.31245243 14.50168276 11.39509338 13.89932357 9 11 C9.66 11 10.32 11 11 11 C10.34 9.88625 9.68 8.7725 9 7.625 C7 4.25 7 4.25 7 2 C4.69 1.67 2.38 1.34 0 1 C0 0.67 0 0.34 0 0 Z " fill="#55C8F6" transform="translate(98,208)"/>
<path d="M0 0 C0 0.33 0 0.66 0 1 C-7.13164389 3.28981703 -13.57287607 3.05037938 -21 2.625 C-22.73443359 2.53992188 -22.73443359 2.53992188 -24.50390625 2.453125 C-27.33665423 2.31265816 -30.1683778 2.16135145 -33 2 C-33 1.67 -33 1.34 -33 1 C-21.98080785 0.23629361 -11.04528196 -0.13379211 0 0 Z " fill="#001DA9" transform="translate(159,198)"/>
<path d="M0 0 C0.81146484 -0.01611328 1.62292969 -0.03222656 2.45898438 -0.04882812 C8.44394404 -0.05373785 8.44394404 -0.05373785 11.62890625 1.83203125 C12.10199219 2.32058594 12.57507813 2.80914062 13.0625 3.3125 C4.68238971 3.46642039 -3.58645793 2.99521293 -11.9375 2.3125 C-7.87864966 -0.39340023 -4.7623546 -0.01882354 0 0 Z " fill="#A5E2FB" transform="translate(148.9375,141.6875)"/>
<path d="M0 0 C3.29292575 2.68790023 4.64891915 6.24244544 6.25 10.0625 C6.53101563 10.69994141 6.81203125 11.33738281 7.1015625 11.99414062 C7.80057532 13.63612867 8.40758203 15.31661513 9 17 C8.67 17.66 8.34 18.32 8 19 C4.19000031 16.46000021 3.53881255 14.25005372 2 10 C2 8.68 2 7.36 2 6 C1.34 5.67 0.68 5.34 0 5 C0 3.35 0 1.7 0 0 Z " fill="#0950E2" transform="translate(174,128)"/>
<path d="M0 0 C0.66 0 1.32 0 2 0 C2.05379226 2.95857409 2.09357093 5.91617721 2.125 8.875 C2.15013672 10.13763672 2.15013672 10.13763672 2.17578125 11.42578125 C2.18222656 12.23144531 2.18867187 13.03710938 2.1953125 13.8671875 C2.21102295 14.98262939 2.21102295 14.98262939 2.22705078 16.12060547 C2 18 2 18 0 20 C-1.18225237 13.16920852 -0.74464946 6.87368733 0 0 Z " fill="#0359E2" transform="translate(35,121)"/>
<path d="M0 0 C1.32 0.66 2.64 1.32 4 2 C4 2.99 4 3.98 4 5 C2.68 5 1.36 5 0 5 C-2.00334686 6.31461399 -2.00334686 6.31461399 -4 8 C-6.625 9.75 -6.625 9.75 -9 11 C-9.66 10.67 -10.32 10.34 -11 10 C-5.555 5.05 -5.555 5.05 0 0 Z " fill="#068AF8" transform="translate(257,12)"/>
<path d="M0 0 C0.66 0.33 1.32 0.66 2 1 C1.525625 1.9075 1.05125 2.815 0.5625 3.75 C-0.64628821 6.26427949 -1.47993886 8.29568209 -2 11 C-2.66 10.67 -3.32 10.34 -4 10 C-4 10.66 -4 11.32 -4 12 C-5.8125 13.6875 -5.8125 13.6875 -8 15 C-8.99 14.67 -9.98 14.34 -11 14 C-10.45730469 13.40832031 -9.91460937 12.81664062 -9.35546875 12.20703125 C-8.64003906 11.41683594 -7.92460937 10.62664062 -7.1875 9.8125 C-6.47980469 9.03519531 -5.77210938 8.25789062 -5.04296875 7.45703125 C-3.06664371 5.08015085 -1.51417406 2.68921134 0 0 Z " fill="#00259D" transform="translate(155,210)"/>
<path d="M0 0 C4 0 4 0 7 2 C5.75023244 5.65316671 5.32901247 6.78065836 2 9 C1.34 8.67 0.68 8.34 0 8 C0 5.36 0 2.72 0 0 Z " fill="#63C4F8" transform="translate(204,177)"/>
<path d="M0 0 C6.03748977 0.80499864 12.01270113 1.88482498 18 3 C18.33 2.01 18.66 1.02 19 0 C19.66 1.98 20.32 3.96 21 6 C13.69354394 4.94915607 6.93607661 3.54322809 0 1 C0 0.67 0 0.34 0 0 Z " fill="#68D6FA" transform="translate(79,190)"/>
<path d="M0 0 C5.80200549 -0.18893912 11.22272887 0.53522495 16.9375 1.5 C17.81212891 1.64308594 18.68675781 1.78617188 19.58789062 1.93359375 C21.72607717 2.28411613 23.86315849 2.64136926 26 3 C26 3.33 26 3.66 26 4 C6.9 4.6 6.9 4.6 0 0 Z " fill="#0333D2" transform="translate(50,150)"/>
<path d="M0 0 C2.24993359 -0.02707139 4.49996095 -0.04642829 6.75 -0.0625 C8.00296875 -0.07410156 9.2559375 -0.08570312 10.546875 -0.09765625 C13.28536501 -0.02021027 15.41880293 0.17219185 18 1 C18 1.66 18 2.32 18 3 C11.73 3 5.46 3 -1 3 C-0.67 2.01 -0.34 1.02 0 0 Z " fill="#0A75F9" transform="translate(146,97)"/>
<path d="M0 0 C0.66 0 1.32 0 2 0 C3.71466036 3.42932071 3.05404056 7.21716065 3 11 C0.03 11 -2.94 11 -6 11 C-4.68 10.34 -3.36 9.68 -2 9 C-1.3398387 7.07780473 -1.3398387 7.07780473 -1.3125 4.9375 C-1 1 -1 1 0 0 Z " fill="#ABE4FD" transform="translate(165,132)"/>
<path d="M0 0 C0.66 0 1.32 0 2 0 C1.45119974 3.93306853 0.74199701 7.41353557 -1 11 C-1.99 11.495 -1.99 11.495 -3 12 C-3 11.34 -3 10.68 -3 10 C-7.29 10 -11.58 10 -16 10 C-16 9.67 -16 9.34 -16 9 C-11.38 9 -6.76 9 -2 9 C-1.855625 7.88625 -1.71125 6.7725 -1.5625 5.625 C-1 2 -1 2 0 0 Z " fill="#177AFA" transform="translate(96,78)"/>
<path d="M0 0 C0.33 0 0.66 0 1 0 C1.19569589 2.56211075 1.38180612 5.12432391 1.5625 7.6875 C1.61857422 8.40873047 1.67464844 9.12996094 1.73242188 9.87304688 C1.99955159 13.77314064 2.00887596 17.21111028 1 21 C-1 19 -1 19 -1.125 15.5625 C-1.08375 14.386875 -1.0425 13.21125 -1 12 C-1 11.01 -1 10.02 -1 9 C-0.84872598 7.43593472 -0.68097478 5.87340748 -0.5 4.3125 C-0.4071875 3.50425781 -0.314375 2.69601563 -0.21875 1.86328125 C-0.1465625 1.24839844 -0.074375 0.63351563 0 0 Z " fill="#0429EB" transform="translate(180,46)"/>
<path d="M0 0 C-1.7241302 1.29838176 -3.45453232 2.58843747 -5.1875 3.875 C-6.63189453 4.95394531 -6.63189453 4.95394531 -8.10546875 6.0546875 C-10.71128675 7.80596599 -13.04792144 8.97459794 -16 10 C-14.59645587 6.49113968 -13.35634177 5.5732852 -10 4 C-9.34 3.01 -8.68 2.02 -8 1 C-4.65086245 -0.71750644 -3.65376797 -1.21792266 0 0 Z " fill="#025EF2" transform="translate(75,284)"/>
<path d="M0 0 C1.89453125 0.24609375 1.89453125 0.24609375 4 1 C6.8734794 6.07019338 7.48069808 12.28767891 8 18 C6.03064308 15.04596461 4.78285732 12.27704947 3.4375 9 C3.00308594 7.948125 2.56867188 6.89625 2.12109375 5.8125 C1.35740456 3.89662468 0.65221158 1.95663474 0 0 Z " fill="#0875FB" transform="translate(156,56)"/>
<path d="M0 0 C3.18692254 3.18692254 3.06793609 6.78881558 3.1875 11.125 C3 15 3 15 1 18 C0.04380267 14.00204108 -0.1039592 10.29196078 -0.0625 6.1875 C-0.05347656 5.02605469 -0.04445313 3.86460937 -0.03515625 2.66796875 C-0.02355469 1.78753906 -0.01195313 0.90710938 0 0 Z " fill="#023AC5" transform="translate(105,166)"/>
<path d="M0 0 C4.29 1.32 8.58 2.64 13 4 C13 4.33 13 4.66 13 5 C11.02 5 9.04 5 7 5 C8.98 6.32 10.96 7.64 13 9 C12.01 9.495 12.01 9.495 11 10 C9.16106176 8.71632558 7.32897375 7.42283239 5.5 6.125 C4.4790625 5.40570313 3.458125 4.68640625 2.40625 3.9453125 C1.6121875 3.30335938 0.818125 2.66140625 0 2 C0 1.34 0 0.68 0 0 Z " fill="#58CFF8" transform="translate(79,202)"/>
<path d="M0 0 C-6.04057576 2.27057103 -11.56318772 3.48914188 -18 4 C-17.01 3.67 -16.02 3.34 -15 3 C-15 2.34 -15 1.68 -15 1 C-12.62185747 -0.18907126 -10.70522169 -0.3533546 -8.0625 -0.625 C-6.74958984 -0.76808594 -6.74958984 -0.76808594 -5.41015625 -0.9140625 C-3 -1 -3 -1 0 0 Z " fill="#012BB1" transform="translate(195,202)"/>
<path d="M0 0 C0.33 0 0.66 0 1 0 C1.37851209 5.93002267 0.10575375 10.47239641 -2 16 C-2.33 16 -2.66 16 -3 16 C-3.0272415 14.58344207 -3.04650467 13.16672955 -3.0625 11.75 C-3.07410156 10.96109375 -3.08570313 10.1721875 -3.09765625 9.359375 C-3.00385306 7.09308998 -2.63241063 5.1711105 -2 3 C-1.34 3 -0.68 3 0 3 C0 2.01 0 1.02 0 0 Z " fill="#0238BE" transform="translate(175,179)"/>
<path d="M0 0 C-1.33216504 2.66433008 -2.47151628 2.74447159 -5.25 3.6875 C-8.85250691 4.83662501 -11.33117789 5.3018401 -15 4 C-10.09731431 0.73154287 -5.86826297 -0.27944109 0 0 Z " fill="#0236BA" transform="translate(189,193)"/>
<path d="M0 0 C0.61746094 0.32613281 1.23492187 0.65226563 1.87109375 0.98828125 C7.46254535 3.87336815 12.96845269 6.20801855 19 8 C19 8.33 19 8.66 19 9 C12.48325075 9.70834231 7.37677757 7.73523853 2 4 C0.70703125 1.828125 0.70703125 1.828125 0 0 Z " fill="#0023B0" transform="translate(63,184)"/>
<path d="M0 0 C0.99 0.495 0.99 0.495 2 1 C2.4140625 3.06640625 2.4140625 3.06640625 2.625 5.5625 C2.69976562 6.38878906 2.77453125 7.21507812 2.8515625 8.06640625 C2.92503906 9.02353516 2.92503906 9.02353516 3 10 C3.66 10 4.32 10 5 10 C4.67 11.98 4.34 13.96 4 16 C0.29729514 10.4459427 -0.22186294 6.54495663 0 0 Z " fill="#0244D2" transform="translate(38,156)"/>
<path d="M0 0 C2.58361518 -0.05407567 5.16609255 -0.093707 7.75 -0.125 C8.84441406 -0.15013672 8.84441406 -0.15013672 9.9609375 -0.17578125 C13.8044624 -0.21072239 16.74606772 -0.17499684 20 2 C15.915021 2.54466387 12.1274515 3 8 3 C8 2.34 8 1.68 8 1 C5.69 1.33 3.38 1.66 1 2 C0.67 1.34 0.34 0.68 0 0 Z " fill="#EBFAFB" transform="translate(124,99)"/>
<path d="M0 0 C1.65 0 3.3 0 5 0 C5 0.66 5 1.32 5 2 C5.66 2 6.32 2 7 2 C8.32 4.64 9.64 7.28 11 10 C6.70668059 7.8533403 6.89248386 7.78496772 5 4 C2.98330173 2.86649466 2.98330173 2.86649466 1 2 C0.67 1.34 0.34 0.68 0 0 Z " fill="#004DF5" transform="translate(226,93)"/>
<path d="M0 0 C0.66 0 1.32 0 2 0 C2.33 0.99 2.66 1.98 3 3 C0.36 5.31 -2.28 7.62 -5 10 C-5.66 9.34 -6.32 8.68 -7 8 C-5.88200014 6.66079162 -4.75538103 5.32877444 -3.625 4 C-2.68527344 2.88625 -2.68527344 2.88625 -1.7265625 1.75 C-1.15679687 1.1725 -0.58703125 0.595 0 0 Z " fill="#0094FC" transform="translate(298,80)"/>
<path d="M0 0 C0.66 0.33 1.32 0.66 2 1 C-0.30283254 3.54131358 -2.67313793 5.07110295 -5.6875 6.6875 C-6.49574219 7.12449219 -7.30398437 7.56148437 -8.13671875 8.01171875 C-8.75160156 8.33785156 -9.36648437 8.66398437 -10 9 C-10.66 8.34 -11.32 7.68 -12 7 C-3 1 -3 1 0 0 Z " fill="#056EFB" transform="translate(97,54)"/>
<path d="M0 0 C0.33 0 0.66 0 1 0 C1.02578125 0.62648437 1.0515625 1.25296875 1.078125 1.8984375 C1.13484375 2.71570313 1.1915625 3.53296875 1.25 4.375 C1.29640625 5.18710938 1.3428125 5.99921875 1.390625 6.8359375 C1.59171875 7.55007812 1.7928125 8.26421875 2 9 C3.96044675 10.12607108 3.96044675 10.12607108 6 11 C6.33 11.99 6.66 12.98 7 14 C5.68 14.33 4.36 14.66 3 15 C3 14.34 3 13.68 3 13 C2.01 12.67 1.02 12.34 0 12 C0 8.04 0 4.08 0 0 Z " fill="#0259E3" transform="translate(47,129)"/>
<path d="M0 0 C1.56393356 3.97376829 0.36145292 6.81377903 -0.9375 10.75 C-1.31777344 11.92046875 -1.69804687 13.0909375 -2.08984375 14.296875 C-2.39019531 15.18890625 -2.69054687 16.0809375 -3 17 C-3.66 15.68 -4.32 14.36 -5 13 C-4.34 12.67 -3.68 12.34 -3 12 C-3 10.02 -3 8.04 -3 6 C-2.34 6 -1.68 6 -1 6 C-1.020625 5.195625 -1.04125 4.39125 -1.0625 3.5625 C-1 1 -1 1 0 0 Z " fill="#0284F8" transform="translate(330,110)"/>
<path d="M0 0 C6.00333124 -0.6319296 10.63404795 1.62455877 16 4 C16 4.66 16 5.32 16 6 C10.60204011 4.84941444 5.29012667 3.57578241 0 2 C0 1.34 0 0.68 0 0 Z " fill="#079FFB" transform="translate(169,9)"/>
<path d="M0 0 C6.71700347 -0.31985731 11.75726932 0.5206176 18 3 C18 3.33 18 3.66 18 4 C11.74892565 3.57045059 5.95795479 2.98598493 0 1 C0 0.67 0 0.34 0 0 Z " fill="#001FA0" transform="translate(88,204)"/>
<path d="M0 0 C-1.57533086 0.86883706 -3.16064509 1.71959068 -4.75 2.5625 C-5.63171875 3.03816406 -6.5134375 3.51382813 -7.421875 4.00390625 C-10.20701188 5.07998186 -11.26980214 5.06528748 -14 4 C-13 2 -13 2 -10.8203125 1.11328125 C-9.93085938 0.84902344 -9.04140625 0.58476562 -8.125 0.3125 C-7.24070313 0.04050781 -6.35640625 -0.23148438 -5.4453125 -0.51171875 C-3 -1 -3 -1 0 0 Z " fill="#0230BA" transform="translate(204,189)"/>
<path d="M0 0 C0.33 0.66 0.66 1.32 1 2 C-1.06242617 2.02717692 -3.12495703 2.0464758 -5.1875 2.0625 C-6.33605469 2.07410156 -7.48460938 2.08570313 -8.66796875 2.09765625 C-11.59300586 2.01192832 -14.16316291 1.67849023 -17 1 C-17 0.67 -17 0.34 -17 0 C-11.0942058 -0.88860329 -5.8857823 -1.15613581 0 0 Z " fill="#9EDCFD" transform="translate(123,142)"/>
<path d="M0 0 C0.66 0.33 1.32 0.66 2 1 C1.67 1.66 1.34 2.32 1 3 C0.34 3 -0.32 3 -1 3 C-1.226875 3.598125 -1.45375 4.19625 -1.6875 4.8125 C-3.33811133 7.56351888 -5.1972081 8.52484637 -8 10 C-8 9.01 -8 8.02 -8 7 C-7.34 7 -6.68 7 -6 7 C-5.67 6.01 -5.34 5.02 -5 4 C-4.34 4 -3.68 4 -3 4 C-3 3.34 -3 2.68 -3 2 C-2.01 1.34 -1.02 0.68 0 0 Z " fill="#0146EF" transform="translate(223,95)"/>
<path d="M0 0 C1.47668858 0.0133035 2.95331108 0.03716415 4.4296875 0.0703125 C5.18378906 0.07933594 5.93789062 0.08835937 6.71484375 0.09765625 C8.57826004 0.1212438 10.44151343 0.15711531 12.3046875 0.1953125 C12.3046875 0.5253125 12.3046875 0.8553125 12.3046875 1.1953125 C10.24408686 1.56036766 8.18109118 1.91191965 6.1171875 2.2578125 C4.39435547 2.55365234 4.39435547 2.55365234 2.63671875 2.85546875 C-0.48179616 3.17353534 -2.69337033 3.00374514 -5.6953125 2.1953125 C-3.6953125 0.1953125 -3.6953125 0.1953125 0 0 Z " fill="#056CF6" transform="translate(135.6953125,86.8046875)"/>
<path d="M0 0 C0.99 0.495 0.99 0.495 2 1 C2 1.66 2 2.32 2 3 C2.99 3.33 3.98 3.66 5 4 C5 4.99 5 5.98 5 7 C5.66 7 6.32 7 7 7 C7.66 8.98 8.32 10.96 9 13 C5.02408145 10.12850327 2.44710903 7.25978238 0 3 C0 2.01 0 1.02 0 0 Z " fill="#00229B" transform="translate(107,210)"/>
<path d="M0 0 C0.99 0.495 0.99 0.495 2 1 C2.99 0.67 3.98 0.34 5 0 C7.3406065 0.27769908 9.67624308 0.60539977 12 1 C11.01 2.485 11.01 2.485 10 4 C6.7 3.67 3.4 3.34 0 3 C0 2.01 0 1.02 0 0 Z " fill="#0367F5" transform="translate(56,97)"/>
<path d="M0 0 C-0.75827092 1.17487036 -1.53207755 2.33972592 -2.3125 3.5 C-2.74175781 4.1496875 -3.17101562 4.799375 -3.61328125 5.46875 C-4.07089844 5.9740625 -4.52851562 6.479375 -5 7 C-5.99 7 -6.98 7 -8 7 C-7.814375 6.38125 -7.62875 5.7625 -7.4375 5.125 C-6.76313824 2.95839822 -6.76313824 2.95839822 -8 1 C-3.375 -1.125 -3.375 -1.125 0 0 Z " fill="#E4F3FA" transform="translate(108,54)"/>
<path d="M0 0 C0 0.66 0 1.32 0 2 C-3.82942948 4.90108294 -7.27536912 5.53680089 -12 6 C-8.82952065 2.30110743 -4.90226152 0 0 0 Z " fill="#00249B" transform="translate(180,216)"/>
<path d="M0 0 C4.29 0 8.58 0 13 0 C13 0.66 13 1.32 13 2 C13.66 2.33 14.32 2.66 15 3 C10.65359226 4.27835522 8.19352578 3.5168072 4 2 C2.68 2 1.36 2 0 2 C0 1.34 0 0.68 0 0 Z " fill="#049DFB" transform="translate(150,6)"/>
<path d="M0 0 C4.77609498 1.64178265 8.79382904 4.26546702 13 7 C12.01 7.495 12.01 7.495 11 8 C6.41252807 6.41240356 2.46293907 4.31014337 0 0 Z " fill="#0296FC" transform="translate(238,200)"/>
<path d="M0 0 C0.99 0.33 1.98 0.66 3 1 C3 2.65 3 4.3 3 6 C1.02 6 -0.96 6 -3 6 C-2 4 -1 2 0 0 Z " fill="#E9F4FA" transform="translate(65,83)"/>
<path d="M0 0 C0 3 0 3 -2.1875 5.625 C-5.00654002 8.00552268 -6.39755548 8.69121904 -10 9 C-9 7 -9 7 -6 5 C-2.89793752 2.61758104 -2.89793752 2.61758104 0 0 Z " fill="#013BC5" transform="translate(209,183)"/>
<path d="M0 0 C0.99 0.33 1.98 0.66 3 1 C3.125 7.75 3.125 7.75 2 10 C1.34 10 0.68 10 0 10 C0 6.7 0 3.4 0 0 Z " fill="#90D2F7" transform="translate(181,146)"/>
<path d="M0 0 C0.99 0.33 1.98 0.66 3 1 C0.75 3.5625 0.75 3.5625 -2 6 C-4.3125 5.8125 -4.3125 5.8125 -6 5 C-2.25 1.125 -2.25 1.125 0 0 Z " fill="#076EFB" transform="translate(82,63)"/>
<path d="M0 0 C0 0.66 0 1.32 0 2 C-2.97 3.65 -5.94 5.3 -9 7 C-9.66 6.34 -10.32 5.68 -11 5 C-9.54462432 4.16151196 -8.08559627 3.32936066 -6.625 2.5 C-5.81289062 2.0359375 -5.00078125 1.571875 -4.1640625 1.09375 C-2 0 -2 0 0 0 Z " fill="#069DFB" transform="translate(79,18)"/>
<path d="M0 0 C2 1.375 2 1.375 4 3 C4 3.66 4 4.32 4 5 C4.99 5.33 5.98 5.66 7 6 C6.67 7.32 6.34 8.64 6 10 C2.51668565 6.98112756 1.20842856 4.43090471 0 0 Z " fill="#51ADF4" transform="translate(191,160)"/>
<path d="M0 0 C3.96 0.33 7.92 0.66 12 1 C10 3 10 3 7.8359375 3.1953125 C6.61777344 3.16050781 6.61777344 3.16050781 5.375 3.125 C4.55773437 3.10695313 3.74046875 3.08890625 2.8984375 3.0703125 C2.27195312 3.04710938 1.64546875 3.02390625 1 3 C0.67 2.01 0.34 1.02 0 0 Z " fill="#0C77FA" transform="translate(68,88)"/>
<path d="M0 0 C0.33 0 0.66 0 1 0 C3.29612756 9.41002278 3.29612756 9.41002278 3 14 C0.9375 12.625 0.9375 12.625 -1 10 C-1.05863115 6.59939315 -0.58718592 3.34440677 0 0 Z " fill="#0049CA" transform="translate(96,168)"/>
<path d="M0 0 C0.90105469 0.01804687 1.80210938 0.03609375 2.73046875 0.0546875 C3.41753906 0.07789062 4.10460937 0.10109375 4.8125 0.125 C1.8125 2.125 1.8125 2.125 -2.1875 2.125 C-2.5175 2.785 -2.8475 3.445 -3.1875 4.125 C-3.1875 3.465 -3.1875 2.805 -3.1875 2.125 C-4.8375 2.125 -6.4875 2.125 -8.1875 2.125 C-4.87379 -0.08414 -3.8428979 -0.09981553 0 0 Z " fill="#ECF6FA" transform="translate(85.1875,99.875)"/>
<path d="M0 0 C0.8971875 0.5259375 0.8971875 0.5259375 1.8125 1.0625 C-2.26119424 3.09934712 -4.77687864 3.0882259 -9.1875 2.0625 C-2.84375 -1.21875 -2.84375 -1.21875 0 0 Z " fill="#002B99" transform="translate(159.1875,234.9375)"/>
<path d="M0 0 C-1.98 0.66 -3.96 1.32 -6 2 C-6 1.67 -6 1.34 -6 1 C-8.64 0.67 -11.28 0.34 -14 0 C-14 -0.33 -14 -0.66 -14 -1 C-12.23086176 -1.22226864 -10.45955629 -1.42733873 -8.6875 -1.625 C-7.70136719 -1.74101562 -6.71523437 -1.85703125 -5.69921875 -1.9765625 C-3 -2 -3 -2 0 0 Z " fill="#0954BC" transform="translate(146,226)"/>
<path d="M0 0 C1.65 0 3.3 0 5 0 C5 0.66 5 1.32 5 2 C4.01 2 3.02 2 2 2 C1.67 4.97 1.34 7.94 1 11 C0.67 11 0.34 11 0 11 C0 7.37 0 3.74 0 0 Z " fill="#F1FBFB" transform="translate(105,99)"/>
<path d="M0 0 C0 0.99 0 1.98 0 3 C-1.98 3.66 -3.96 4.32 -6 5 C-6 3.68 -6 2.36 -6 1 C-3.92446352 0.4465236 -2.15634036 0 0 0 Z " fill="#0445EE" transform="translate(274,183)"/>
<path d="M0 0 C1.09898702 3.29696105 0.87124444 4.40494903 0.0625 7.6875 C-0.22947266 8.89986328 -0.22947266 8.89986328 -0.52734375 10.13671875 C-0.68332031 10.75160156 -0.83929688 11.36648437 -1 12 C-1.66 11.67 -2.32 11.34 -3 11 C-2.53199289 6.94393835 -2.12046792 3.53411321 0 0 Z " fill="#045AF8" transform="translate(109,75)"/>
<path d="M0 0 C0.99 0.33 1.98 0.66 3 1 C1.35 3.64 -0.3 6.28 -2 9 C-3 6 -3 6 -1.5625 2.8125 C-1.046875 1.884375 -0.53125 0.95625 0 0 Z " fill="#0698FB" transform="translate(267,222)"/>
<path d="M0 0 C2.97 0 5.94 0 9 0 C6.60236815 2.39763185 5.66726502 2.34280586 2.375 2.625 C1.55773437 2.69976562 0.74046875 2.77453125 -0.1015625 2.8515625 C-0.72804687 2.90054688 -1.35453125 2.94953125 -2 3 C-1.34 2.67 -0.68 2.34 0 2 C0 1.34 0 0.68 0 0 Z " fill="#88E1FC" transform="translate(180,191)"/>
<path d="M0 0 C-0.33 0.66 -0.66 1.32 -1 2 C-3.375 2.75 -3.375 2.75 -6 3 C-6.99 2.34 -7.98 1.68 -9 1 C-5.57367167 -0.61798838 -3.61944899 -1.34053666 0 0 Z " fill="#08A0FB" transform="translate(98,12)"/>
<path d="M0 0 C4.455 0.99 4.455 0.99 9 2 C9 2.33 9 2.66 9 3 C6.36 3 3.72 3 1 3 C0.67 2.01 0.34 1.02 0 0 Z " fill="#002CA0" transform="translate(119,235)"/>
<path d="M0 0 C-0.66 1.32 -1.32 2.64 -2 4 C-3.9375 3.625 -3.9375 3.625 -6 3 C-6.33 2.34 -6.66 1.68 -7 1 C-4.50935112 0.31292445 -2.62113708 0 0 0 Z " fill="#4FBDF5" transform="translate(189,204)"/>
<path d="M0 0 C0.66 0.33 1.32 0.66 2 1 C2 2.98 2 4.96 2 7 C1.01 7.495 1.01 7.495 0 8 C-0.38063221 5.6739143 -0.71269945 3.33944736 -1 1 C-0.67 0.67 -0.34 0.34 0 0 Z " fill="#0769F5" transform="translate(93,98)"/>
<path d="M0 0 C0.99 0.495 0.99 0.495 2 1 C2.40729228 3.32156597 2.74438677 5.6568787 3 8 C2.01 8.33 1.02 8.66 0 9 C0 6.03 0 3.06 0 0 Z " fill="#0422E8" transform="translate(181,88)"/>
<path d="M0 0 C0.99 0.33 1.98 0.66 3 1 C3.33 4.3 3.66 7.6 4 11 C1.54176828 7.31265242 0.98757384 4.30300029 0 0 Z " fill="#055AF9" transform="translate(160,63)"/>
<path d="M0 0 C4.95 0.99 4.95 0.99 10 2 C7 4 7 4 5 3.8125 C3 3 3 3 0 0 Z " fill="#47AAF6" transform="translate(85,206)"/>
<path d="M0 0 C3.81684226 1.55500981 6.19195732 4.03595495 9 7 C5.56072421 5.7580393 2.74792181 4.44259716 0 2 C0 1.34 0 0.68 0 0 Z " fill="#0592FA" transform="translate(263,18)"/>
<path d="M0 0 C0.66 0 1.32 0 2 0 C1.67 0.66 1.34 1.32 1 2 C0.67 1.34 0.34 0.68 0 0 Z " fill="#0000FF" transform="translate(37,166)"/>
<path d="M0 0 C2 1 2 1 2 1 Z " fill="#003FFF" transform="translate(157,246)"/>
<path d="" fill="#003FFF" transform="translate(0,0)"/>
<path d="" fill="#00BFFF" transform="translate(0,0)"/>
<path d="" fill="#00BFFF" transform="translate(0,0)"/>
<path d="M0 0 C2 1 2 1 2 1 Z " fill="#00BFFF" transform="translate(60,53)"/>
<path d="M0 0 C2 1 2 1 2 1 Z " fill="#00BFFF" transform="translate(318,38)"/>
<path d="" fill="#0055FF" transform="translate(0,0)"/>
<path d="" fill="#0055FF" transform="translate(0,0)"/>
<path d="" fill="#00FFFF" transform="translate(0,0)"/>
<path d="" fill="#007FFF" transform="translate(0,0)"/>
<path d="" fill="#00AAFF" transform="translate(0,0)"/>
<path d="" fill="#00FFFF" transform="translate(0,0)"/>
<path d="" fill="#00FFFF" transform="translate(0,0)"/>
<path d="" fill="#0000FF" transform="translate(0,0)"/>
<path d="" fill="#0000FF" transform="translate(0,0)"/>
<path d="" fill="#0000FF" transform="translate(0,0)"/>
<path d="" fill="#007FFF" transform="translate(0,0)"/>
<path d="" fill="#0055FF" transform="translate(0,0)"/>
<path d="" fill="#00FFFF" transform="translate(0,0)"/>
<path d="" fill="#007FFF" transform="translate(0,0)"/>
<path d="" fill="#0000FF" transform="translate(0,0)"/>
<path d="" fill="#0000FF" transform="translate(0,0)"/>
<path d="" fill="#00FFFF" transform="translate(0,0)"/>
<path d="" fill="#0000FF" transform="translate(0,0)"/>
<path d="" fill="#007FFF" transform="translate(0,0)"/>
<path d="" fill="#00FFFF" transform="translate(0,0)"/>
<path d="" fill="#0000FF" transform="translate(0,0)"/>
<path d="" fill="#007FFF" transform="translate(0,0)"/>
<path d="" fill="#0000FF" transform="translate(0,0)"/>
<path d="" fill="#0000FF" transform="translate(0,0)"/>
<path d="" fill="#00FFFF" transform="translate(0,0)"/>
<path d="" fill="#007FFF" transform="translate(0,0)"/>
<path d="" fill="#0000FF" transform="translate(0,0)"/>
<path d="" fill="#0000FF" transform="translate(0,0)"/>
<path d="" fill="#007FFF" transform="translate(0,0)"/>
<path d="" fill="#0000FF" transform="translate(0,0)"/>
<path d="" fill="#0000FF" transform="translate(0,0)"/>
<path d="" fill="#5555FF" transform="translate(0,0)"/>
<path d="" fill="#007FFF" transform="translate(0,0)"/>
<path d="" fill="#007FFF" transform="translate(0,0)"/>
<path d="" fill="#00FFFF" transform="translate(0,0)"/>
<path d="" fill="#0000FF" transform="translate(0,0)"/>
<path d="" fill="#0000FF" transform="translate(0,0)"/>
<path d="" fill="#0000FF" transform="translate(0,0)"/>
<path d="" fill="#00FFFF" transform="translate(0,0)"/>
<path d="" fill="#007FFF" transform="translate(0,0)"/>
<path d="" fill="#007FFF" transform="translate(0,0)"/>
<path d="" fill="#00FFFF" transform="translate(0,0)"/>
<path d="" fill="#0055FF" transform="translate(0,0)"/>
<path d="" fill="#007FFF" transform="translate(0,0)"/>
<path d="" fill="#0000FF" transform="translate(0,0)"/>
<path d="" fill="#0000FF" transform="translate(0,0)"/>
<path d="" fill="#007FFF" transform="translate(0,0)"/>
<path d="" fill="#00FFFF" transform="translate(0,0)"/>
<path d="" fill="#00FFFF" transform="translate(0,0)"/>
<path d="" fill="#00FFFF" transform="translate(0,0)"/>
<path d="" fill="#0000FF" transform="translate(0,0)"/>
<path d="" fill="#00FFFF" transform="translate(0,0)"/>
<path d="" fill="#0000FF" transform="translate(0,0)"/>
<path d="" fill="#00FFFF" transform="translate(0,0)"/>
<path d="" fill="#00FFFF" transform="translate(0,0)"/>
<path d="" fill="#00FFFF" transform="translate(0,0)"/>
<path d="" fill="#0000FF" transform="translate(0,0)"/>
<path d="" fill="#00BFFF" transform="translate(0,0)"/>
<path d="" fill="#0000FF" transform="translate(0,0)"/>
<path d="" fill="#00FFFF" transform="translate(0,0)"/>
<path d="" fill="#007FFF" transform="translate(0,0)"/>
<path d="" fill="#00FFFF" transform="translate(0,0)"/>
<path d="" fill="#00FFFF" transform="translate(0,0)"/>
<path d="" fill="#00FFFF" transform="translate(0,0)"/>
<path d="" fill="#00FFFF" transform="translate(0,0)"/>
<path d="" fill="#007FFF" transform="translate(0,0)"/>
<path d="" fill="#0099FF" transform="translate(0,0)"/>
<path d="" fill="#00FFFF" transform="translate(0,0)"/>
<path d="" fill="#00FFFF" transform="translate(0,0)"/>
<path d="" fill="#00FFFF" transform="translate(0,0)"/>
<path d="" fill="#00FFFF" transform="translate(0,0)"/>
<path d="" fill="#00FFFF" transform="translate(0,0)"/>
<path d="" fill="#007FFF" transform="translate(0,0)"/>
<path d="" fill="#00FFFF" transform="translate(0,0)"/>
<path d="" fill="#00FFFF" transform="translate(0,0)"/>
<path d="" fill="#00FFFF" transform="translate(0,0)"/>
<path d="" fill="#00FFFF" transform="translate(0,0)"/>
<path d="" fill="#00FFFF" transform="translate(0,0)"/>
<path d="" fill="#00FFFF" transform="translate(0,0)"/>
<path d="" fill="#00FFFF" transform="translate(0,0)"/>
<path d="" fill="#007FFF" transform="translate(0,0)"/>
<path d="" fill="#00FFFF" transform="translate(0,0)"/>
<path d="" fill="#2AAAFF" transform="translate(0,0)"/>
<path d="" fill="#00BFFF" transform="translate(0,0)"/>
<path d="" fill="#00FFFF" transform="translate(0,0)"/>
<path d="" fill="#00FFFF" transform="translate(0,0)"/>
</svg>
